<svg version="1.1" id="Layer_1" xmlns="http://www.w3.org/2000/svg" xmlns:xlink="http://www.w3.org/1999/xlink" x="0px" y="0px"
	 width="100%" viewBox="0 0 500 500" enable-background="new 0 0 500 500" xml:space="preserve">
<path fill="#424242" opacity="1.000000" stroke="none" 
	d="
M324.000000,501.000000 
	C216.000031,501.000000 108.500053,501.000000 1.000058,501.000000 
	C1.000038,334.333405 1.000038,167.666794 1.000019,1.000147 
	C167.666565,1.000098 334.333130,1.000098 500.999756,1.000049 
	C500.999847,167.666519 500.999847,334.333038 500.999939,500.999786 
	C442.166656,501.000000 383.333344,501.000000 324.000000,501.000000 
M284.531189,209.095642 
	C286.125793,205.712387 287.720398,202.329117 289.555176,198.436279 
	C286.348755,196.389084 282.968536,194.230957 278.305634,191.253860 
	C275.708435,198.011307 273.437012,203.921097 270.216675,209.971771 
	C244.287781,209.971771 218.358871,209.971771 192.378876,209.971771 
	C193.443375,218.846985 197.912643,222.782196 206.826035,222.831055 
	C228.282257,222.948685 249.738907,222.988663 271.342255,223.775146 
	C271.757965,225.213058 272.128906,226.665695 272.596252,228.086624 
	C277.893646,244.193192 292.384430,254.779114 309.155273,254.811707 
	C325.415253,254.843323 340.434937,244.042664 345.662079,228.559662 
	C350.953674,212.885803 345.502197,195.260910 332.021576,185.359467 
	C321.958130,177.967896 310.794403,176.121796 297.296967,179.510513 
	C304.832458,183.943115 308.867920,190.397690 317.169830,192.251846 
	C329.323242,194.966171 336.863373,208.634628 334.500610,220.632126 
	C332.203094,232.298264 322.549774,241.128510 311.175720,241.968216 
	C299.130280,242.857498 288.571228,235.399826 285.389160,222.885559 
	C295.802338,222.885559 306.215546,222.885559 316.597565,222.885559 
	C317.917389,208.828873 313.339874,197.970490 303.622620,189.051407 
	C294.771759,180.927567 284.203613,175.739044 273.354584,171.031097 
	C268.726410,169.022690 263.946472,167.363998 258.203278,165.148117 
	C259.944733,164.783737 260.528046,164.556152 261.111786,164.555115 
	C273.270905,164.533600 285.430328,164.495682 297.588776,164.587906 
	C299.183624,164.600006 301.121063,164.855026 302.302917,165.769211 
	C306.623840,169.111603 311.264496,167.935455 315.956512,167.725204 
	C315.174591,157.558258 308.766327,151.859909 298.144226,151.841019 
	C264.165192,151.780579 230.185989,151.817322 196.206863,151.824692 
	C195.244446,151.824905 194.282074,151.916687 193.346634,151.964401 
	C192.903625,159.584946 197.079529,164.582596 204.556961,166.041061 
	C216.137054,168.299713 227.850723,170.120193 239.205261,173.230667 
	C256.180664,177.880936 273.110962,183.003006 288.001495,192.901169 
	C294.227020,197.039413 299.761505,201.941269 302.663635,209.836365 
	C296.177979,209.836365 290.255188,209.836365 284.531189,209.095642 
M190.626816,177.851013 
	C169.615875,179.371567 153.449463,196.975693 154.253693,217.458862 
	C155.069305,238.232193 171.898361,254.710037 192.444794,254.805344 
	C213.052353,254.900925 228.265991,238.437119 229.060104,226.493225 
	C222.419403,225.658539 216.811447,225.362000 212.142517,232.564453 
	C206.065292,241.939392 193.223770,244.244232 182.490494,239.853378 
	C172.756958,235.871536 166.091980,224.703415 167.117691,214.094101 
	C168.164200,203.269775 176.241333,193.884415 186.716797,191.320572 
	C197.219559,188.750076 207.870621,193.036316 214.246811,202.168549 
	C215.359146,203.761688 217.063812,205.674728 218.755127,205.975189 
	C222.120087,206.572952 225.666031,206.152115 229.191864,206.152115 
	C227.081711,190.328705 211.010727,178.409027 190.626816,177.851013 
M265.582550,279.683777 
	C265.582550,290.164673 265.582550,300.645599 265.582550,311.126495 
	C261.145050,300.739349 257.295135,290.172180 253.444199,279.605408 
	C251.078827,273.114899 250.334290,272.766876 243.366791,274.808136 
	C243.366791,295.640503 243.342453,316.442047 243.379089,337.243500 
	C243.393204,345.255127 243.457138,345.265045 251.327164,344.689667 
	C251.936172,344.645172 252.524765,344.321564 253.256195,344.084473 
	C253.256195,330.980042 253.256195,318.059082 253.256195,305.138123 
	C258.089355,316.425415 262.451080,327.736267 266.181335,339.251678 
	C267.882294,344.502563 270.653015,345.633911 275.188385,344.001068 
	C275.188385,320.671265 275.188385,297.484497 275.188385,274.111084 
	C271.683868,274.111084 268.914886,274.111084 265.830933,274.111084 
	C265.735962,275.824097 265.654572,277.291840 265.582550,279.683777 
M348.043976,338.437866 
	C347.601593,341.865387 347.159210,345.292938 346.654419,349.203979 
	C350.002502,349.721771 352.871094,350.165405 356.364929,350.705750 
	C358.304749,337.196472 360.184357,324.106293 362.063995,311.016113 
	C365.213928,323.301208 367.586853,335.529144 369.919739,347.764709 
	C371.054565,353.716583 371.695526,354.164368 378.647339,353.201385 
	C382.043396,330.355103 385.453217,307.416260 388.912720,284.143066 
	C385.388184,283.659332 382.516968,283.265259 379.174072,282.806458 
	C377.354645,295.987030 375.625183,308.515808 373.895721,321.044617 
	C370.967529,309.793793 368.823822,298.543884 366.600708,287.309692 
	C365.112610,279.789642 365.062134,279.799622 356.820251,280.020966 
	C353.934906,299.138763 351.035919,318.347229 348.043976,338.437866 
M201.092545,323.213562 
	C199.306839,307.902802 197.521149,292.592041 195.697830,276.958832 
	C191.742676,277.489624 188.520416,277.922089 185.072449,278.384827 
	C186.132553,288.083832 187.133148,297.238403 188.123764,306.301605 
	C178.694290,308.176147 178.772293,308.167755 177.885437,299.911774 
	C177.164948,293.204346 176.227951,286.520203 175.343719,279.481323 
	C171.494827,279.939117 168.311020,280.317810 164.697754,280.747559 
	C167.525131,304.568237 170.260696,327.615295 173.032257,350.965607 
	C177.041245,350.407593 180.231720,349.963531 183.644928,349.488464 
	C182.390320,338.369141 181.206406,327.876251 179.993591,317.127319 
	C183.382095,316.718933 186.125320,316.388275 189.335480,316.001373 
	C190.677032,326.936768 191.964111,337.428192 193.311661,348.412445 
	C197.058945,347.967133 200.388657,347.571411 204.008896,347.141205 
	C203.006699,338.945496 202.099594,331.527344 201.092545,323.213562 
M163.770279,332.895294 
	C162.291763,325.694794 158.240875,320.164795 152.565567,315.705872 
	C149.162994,313.032562 145.260712,310.811035 142.455948,307.619354 
	C140.218628,305.073364 138.787735,301.480896 138.044586,298.121613 
	C137.736221,296.727722 140.150299,294.731567 141.326340,293.009308 
	C142.868439,294.202576 145.101074,295.086731 145.803558,296.655884 
	C147.116150,299.587830 147.540558,302.917419 148.415314,306.403595 
	C151.766937,305.795105 154.642075,305.273132 158.417313,304.587738 
	C156.686111,299.172028 155.567505,294.130707 153.476181,289.531738 
	C151.017471,284.124817 146.775864,282.673889 140.008636,283.813599 
	C132.682297,285.047455 128.812225,288.077423 127.982697,293.861328 
	C126.670700,303.009094 128.878815,311.086609 136.259445,317.172577 
	C139.465897,319.816559 142.911606,322.168457 146.209991,324.703308 
	C150.933655,328.333466 153.834305,333.002350 154.129578,339.075928 
	C154.266846,341.899445 154.817139,345.115723 150.889389,345.822052 
	C147.030106,346.516022 146.124603,343.382202 145.378754,340.677032 
	C144.379929,337.054260 143.760605,333.326843 142.910904,329.327057 
	C139.393341,329.975922 136.375336,330.532623 132.410797,331.263947 
	C134.308990,337.410095 135.659485,343.045135 137.802216,348.360840 
	C139.887970,353.535156 144.271881,355.617157 149.893188,355.285156 
	C160.355499,354.667145 165.277008,349.138550 164.455139,338.681122 
	C164.324783,337.022461 164.096054,335.371490 163.770279,332.895294 
M299.966461,136.419098 
	C306.227356,127.963173 306.538605,119.029465 301.130463,110.268059 
	C296.282318,102.413841 288.787231,98.637177 279.490692,99.637894 
	C268.940918,100.773521 260.611481,108.843193 259.126831,118.755806 
	C257.661774,128.537628 262.869171,138.748978 271.475037,142.969727 
	C281.339203,147.807632 291.602539,145.616516 299.966461,136.419098 
M228.256760,283.964844 
	C233.158783,283.310272 233.257492,283.028290 231.327911,274.399597 
	C223.852417,274.880463 216.303223,275.366058 208.270370,275.882751 
	C209.778793,299.642853 211.248749,322.796967 212.748047,346.413330 
	C221.148727,345.864319 228.858307,345.360474 237.044022,344.825500 
	C236.703735,341.473724 236.430573,338.783020 236.125732,335.780457 
	C231.448074,335.780457 227.380142,335.780457 222.973312,335.780457 
	C222.528793,328.509003 222.106415,321.599701 221.666656,314.406067 
	C225.952362,313.920227 229.676682,313.497986 233.894867,313.019775 
	C233.559082,309.871155 233.270630,307.166321 232.951385,304.172852 
	C228.818527,304.428436 225.212860,304.651428 221.191086,304.900146 
	C220.799438,300.319763 220.330414,296.050293 220.091217,291.768005 
	C219.673187,284.284790 219.732391,284.281494 228.256760,283.964844 
M176.299072,127.985970 
	C174.054611,127.985970 171.810135,127.985970 169.346146,127.985970 
	C169.586624,134.897598 172.567551,139.482849 177.879349,141.837967 
	C182.019760,143.673721 186.735901,145.040436 191.223053,145.121109 
	C210.686127,145.470993 230.159073,145.278610 249.628403,145.261566 
	C251.089523,145.260284 252.550461,145.087814 253.928650,145.000198 
	C255.808395,135.354965 253.435379,132.402420 244.026443,132.390015 
	C229.050034,132.370270 214.073563,132.402878 199.097183,132.376053 
	C192.676712,132.364548 186.056442,133.391418 180.541321,128.602310 
	C179.799637,127.958267 178.312088,128.173203 176.299072,127.985970 
M339.573730,286.876526 
	C341.198151,286.876526 342.822571,286.876526 344.769257,286.876526 
	C345.071381,283.842590 345.341156,281.133362 345.649323,278.038971 
	C337.511780,277.290161 329.973846,276.596497 322.049927,275.867340 
	C319.846619,299.649841 317.706207,322.753174 315.519867,346.352478 
	C323.956543,347.038666 331.633148,347.663025 339.785767,348.326111 
	C339.785767,344.734741 339.785767,342.023193 339.785767,339.336609 
	C335.471313,338.778809 331.410675,338.253815 327.161835,337.704498 
	C327.912018,330.161285 328.611145,323.131592 329.334351,315.859680 
	C333.601562,316.101990 337.216187,316.307251 341.397034,316.544678 
	C341.646973,313.629700 341.879913,310.912781 342.146729,307.800903 
	C337.962036,307.293610 334.248596,306.843445 330.109589,306.341705 
	C330.802246,299.346039 331.447632,292.827850 332.110626,286.131683 
	C334.737244,286.401489 336.714752,286.604645 339.573730,286.876526 
M301.544373,335.986267 
	C299.762146,335.878387 297.979919,335.770508 295.537048,335.622620 
	C296.224304,333.058533 296.676056,331.001434 297.325775,329.008911 
	C301.918274,314.925171 306.665314,300.890289 311.091553,286.754822 
	C312.199341,283.217194 312.317108,279.369507 312.981171,275.073730 
	C304.212524,274.639465 296.327271,274.248962 288.109741,273.841980 
	C287.959015,277.274445 287.839081,280.005829 287.713470,282.865875 
	C292.185822,283.317627 296.080597,283.711060 300.480164,284.155457 
	C299.765747,286.620087 299.282684,288.523956 298.664093,290.382721 
	C294.196625,303.806641 289.586700,317.184784 285.295197,330.664459 
	C284.203369,334.093842 283.906067,337.823486 283.658234,341.443573 
	C283.589752,342.443451 284.987854,344.439209 285.758698,344.462372 
	C293.363800,344.691345 300.978546,344.600800 308.857605,344.600800 
	C308.857605,342.155334 308.857605,339.283966 308.857605,335.996521 
	C306.422791,335.996521 304.433411,335.996521 301.544373,335.986267 
z"/>
<path fill="#FCFBFB" opacity="1.000000" stroke="none" 
	d="
M271.195374,223.059952 
	C249.738907,222.988663 228.282257,222.948685 206.826035,222.831055 
	C197.912643,222.782196 193.443375,218.846985 192.378876,209.971771 
	C218.358871,209.971771 244.287781,209.971771 271.135590,209.968292 
	C276.147125,209.921997 280.239777,209.879181 284.332397,209.836365 
	C290.255188,209.836365 296.177979,209.836365 302.663635,209.836365 
	C299.761505,201.941269 294.227020,197.039413 288.001495,192.901169 
	C273.110962,183.003006 256.180664,177.880936 239.205261,173.230667 
	C227.850723,170.120193 216.137054,168.299713 204.556961,166.041061 
	C197.079529,164.582596 192.903625,159.584946 193.346634,151.964401 
	C194.282074,151.916687 195.244446,151.824905 196.206863,151.824692 
	C230.185989,151.817322 264.165192,151.780579 298.144226,151.841019 
	C308.766327,151.859909 315.174591,157.558258 315.956512,167.725204 
	C311.264496,167.935455 306.623840,169.111603 302.302917,165.769211 
	C301.121063,164.855026 299.183624,164.600006 297.588776,164.587906 
	C285.430328,164.495682 273.270905,164.533600 261.111786,164.555115 
	C260.528046,164.556152 259.944733,164.783737 258.203278,165.148117 
	C263.946472,167.363998 268.726410,169.022690 273.354584,171.031097 
	C284.203613,175.739044 294.771759,180.927567 303.622620,189.051407 
	C313.339874,197.970490 317.917389,208.828873 316.597565,222.885559 
	C306.215546,222.885559 295.802338,222.885559 284.482300,222.886017 
	C279.448761,222.944321 275.322052,223.002136 271.195374,223.059952 
z"/>
<path fill="#FB5757" opacity="1.000000" stroke="none" 
	d="
M191.097595,177.845337 
	C211.010727,178.409027 227.081711,190.328705 229.191864,206.152115 
	C225.666031,206.152115 222.120087,206.572952 218.755127,205.975189 
	C217.063812,205.674728 215.359146,203.761688 214.246811,202.168549 
	C207.870621,193.036316 197.219559,188.750076 186.716797,191.320572 
	C176.241333,193.884415 168.164200,203.269775 167.117691,214.094101 
	C166.091980,224.703415 172.756958,235.871536 182.490494,239.853378 
	C193.223770,244.244232 206.065292,241.939392 212.142517,232.564453 
	C216.811447,225.362000 222.419403,225.658539 229.062592,226.499893 
	C228.265991,238.437119 213.052353,254.900925 192.444794,254.805344 
	C171.898361,254.710037 155.069305,238.232193 154.253693,217.458862 
	C153.449463,196.975693 169.615875,179.371567 191.097595,177.845337 
z"/>
<path fill="#FB5757" opacity="1.000000" stroke="none" 
	d="
M271.268799,223.417542 
	C275.322052,223.002136 279.448761,222.944321 283.980713,222.966827 
	C288.571228,235.399826 299.130280,242.857498 311.175720,241.968216 
	C322.549774,241.128510 332.203094,232.298264 334.500610,220.632126 
	C336.863373,208.634628 329.323242,194.966171 317.169830,192.251846 
	C308.867920,190.397690 304.832458,183.943115 297.296967,179.510513 
	C310.794403,176.121796 321.958130,177.967896 332.021576,185.359467 
	C345.502197,195.260910 350.953674,212.885803 345.662079,228.559662 
	C340.434937,244.042664 325.415253,254.843323 309.155273,254.811707 
	C292.384430,254.779114 277.893646,244.193192 272.596252,228.086624 
	C272.128906,226.665695 271.757965,225.213058 271.268799,223.417542 
z"/>
<path fill="#FA5656" opacity="1.000000" stroke="none" 
	d="
M265.577881,279.221680 
	C265.654572,277.291840 265.735962,275.824097 265.830933,274.111084 
	C268.914886,274.111084 271.683868,274.111084 275.188385,274.111084 
	C275.188385,297.484497 275.188385,320.671265 275.188385,344.001068 
	C270.653015,345.633911 267.882294,344.502563 266.181335,339.251678 
	C262.451080,327.736267 258.089355,316.425415 253.256195,305.138123 
	C253.256195,318.059082 253.256195,330.980042 253.256195,344.084473 
	C252.524765,344.321564 251.936172,344.645172 251.327164,344.689667 
	C243.457138,345.265045 243.393204,345.255127 243.379089,337.243500 
	C243.342453,316.442047 243.366791,295.640503 243.366791,274.808136 
	C250.334290,272.766876 251.078827,273.114899 253.444199,279.605408 
	C257.295135,290.172180 261.145050,300.739349 265.582550,311.126495 
	C265.582550,300.645599 265.582550,290.164673 265.577881,279.221680 
z"/>
<path fill="#FA5656" opacity="1.000000" stroke="none" 
	d="
M348.090454,337.996765 
	C351.035919,318.347229 353.934906,299.138763 356.820251,280.020966 
	C365.062134,279.799622 365.112610,279.789642 366.600708,287.309692 
	C368.823822,298.543884 370.967529,309.793793 373.895721,321.044617 
	C375.625183,308.515808 377.354645,295.987030 379.174072,282.806458 
	C382.516968,283.265259 385.388184,283.659332 388.912720,284.143066 
	C385.453217,307.416260 382.043396,330.355103 378.647339,353.201385 
	C371.695526,354.164368 371.054565,353.716583 369.919739,347.764709 
	C367.586853,335.529144 365.213928,323.301208 362.063995,311.016113 
	C360.184357,324.106293 358.304749,337.196472 356.364929,350.705750 
	C352.871094,350.165405 350.002502,349.721771 346.654419,349.203979 
	C347.159210,345.292938 347.601593,341.865387 348.090454,337.996765 
z"/>
<path fill="#FA5656" opacity="1.000000" stroke="none" 
	d="
M201.142517,323.661377 
	C202.099594,331.527344 203.006699,338.945496 204.008896,347.141205 
	C200.388657,347.571411 197.058945,347.967133 193.311661,348.412445 
	C191.964111,337.428192 190.677032,326.936768 189.335480,316.001373 
	C186.125320,316.388275 183.382095,316.718933 179.993591,317.127319 
	C181.206406,327.876251 182.390320,338.369141 183.644928,349.488464 
	C180.231720,349.963531 177.041245,350.407593 173.032257,350.965607 
	C170.260696,327.615295 167.525131,304.568237 164.697754,280.747559 
	C168.311020,280.317810 171.494827,279.939117 175.343719,279.481323 
	C176.227951,286.520203 177.164948,293.204346 177.885437,299.911774 
	C178.772293,308.167755 178.694290,308.176147 188.123764,306.301605 
	C187.133148,297.238403 186.132553,288.083832 185.072449,278.384827 
	C188.520416,277.922089 191.742676,277.489624 195.697830,276.958832 
	C197.521149,292.592041 199.306839,307.902802 201.142517,323.661377 
z"/>
<path fill="#FA5656" opacity="1.000000" stroke="none" 
	d="
M163.841537,333.306152 
	C164.096054,335.371490 164.324783,337.022461 164.455139,338.681122 
	C165.277008,349.138550 160.355499,354.667145 149.893188,355.285156 
	C144.271881,355.617157 139.887970,353.535156 137.802216,348.360840 
	C135.659485,343.045135 134.308990,337.410095 132.410797,331.263947 
	C136.375336,330.532623 139.393341,329.975922 142.910904,329.327057 
	C143.760605,333.326843 144.379929,337.054260 145.378754,340.677032 
	C146.124603,343.382202 147.030106,346.516022 150.889389,345.822052 
	C154.817139,345.115723 154.266846,341.899445 154.129578,339.075928 
	C153.834305,333.002350 150.933655,328.333466 146.209991,324.703308 
	C142.911606,322.168457 139.465897,319.816559 136.259445,317.172577 
	C128.878815,311.086609 126.670700,303.009094 127.982697,293.861328 
	C128.812225,288.077423 132.682297,285.047455 140.008636,283.813599 
	C146.775864,282.673889 151.017471,284.124817 153.476181,289.531738 
	C155.567505,294.130707 156.686111,299.172028 158.417313,304.587738 
	C154.642075,305.273132 151.766937,305.795105 148.415314,306.403595 
	C147.540558,302.917419 147.116150,299.587830 145.803558,296.655884 
	C145.101074,295.086731 142.868439,294.202576 141.326324,293.009308 
	C140.150299,294.731567 137.736221,296.727722 138.044586,298.121613 
	C138.787735,301.480896 140.218628,305.073364 142.455948,307.619354 
	C145.260712,310.811035 149.162994,313.032562 152.565567,315.705872 
	C158.240875,320.164795 162.291763,325.694794 163.841537,333.306152 
z"/>
<path fill="#FB5757" opacity="1.000000" stroke="none" 
	d="
M299.743103,136.700806 
	C291.602539,145.616516 281.339203,147.807632 271.475037,142.969727 
	C262.869171,138.748978 257.661774,128.537628 259.126831,118.755806 
	C260.611481,108.843193 268.940918,100.773521 279.490692,99.637894 
	C288.787231,98.637177 296.282318,102.413841 301.130463,110.268059 
	C306.538605,119.029465 306.227356,127.963173 299.743103,136.700806 
M274.799927,129.759048 
	C279.634552,133.007355 284.477600,133.336456 288.108276,130.412048 
	C291.703888,127.515892 292.887207,123.692230 291.424805,119.280334 
	C290.105713,115.300850 287.196808,112.913322 283.063385,112.401741 
	C278.913086,111.888069 275.480103,113.557327 273.335205,117.115509 
	C270.851471,121.235832 271.369659,125.354736 274.799927,129.759048 
z"/>
<path fill="#FA5656" opacity="1.000000" stroke="none" 
	d="
M227.818817,283.982056 
	C219.732391,284.281494 219.673187,284.284790 220.091217,291.768005 
	C220.330414,296.050293 220.799438,300.319763 221.191086,304.900146 
	C225.212860,304.651428 228.818527,304.428436 232.951385,304.172852 
	C233.270630,307.166321 233.559082,309.871155 233.894867,313.019775 
	C229.676682,313.497986 225.952362,313.920227 221.666656,314.406067 
	C222.106415,321.599701 222.528793,328.509003 222.973312,335.780457 
	C227.380142,335.780457 231.448074,335.780457 236.125732,335.780457 
	C236.430573,338.783020 236.703735,341.473724 237.044022,344.825500 
	C228.858307,345.360474 221.148727,345.864319 212.748047,346.413330 
	C211.248749,322.796967 209.778793,299.642853 208.270370,275.882751 
	C216.303223,275.366058 223.852417,274.880463 231.327911,274.399597 
	C233.257492,283.028290 233.158783,283.310272 227.818817,283.982056 
z"/>
<path fill="#F95656" opacity="1.000000" stroke="none" 
	d="
M176.734497,127.988174 
	C178.312088,128.173203 179.799637,127.958267 180.541321,128.602310 
	C186.056442,133.391418 192.676712,132.364548 199.097183,132.376053 
	C214.073563,132.402878 229.050034,132.370270 244.026443,132.390015 
	C253.435379,132.402420 255.808395,135.354965 253.928650,145.000198 
	C252.550461,145.087814 251.089523,145.260284 249.628403,145.261566 
	C230.159073,145.278610 210.686127,145.470993 191.223053,145.121109 
	C186.735901,145.040436 182.019760,143.673721 177.879349,141.837967 
	C172.567551,139.482849 169.586624,134.897598 169.346146,127.985970 
	C171.810135,127.985970 174.054611,127.985970 176.734497,127.988174 
z"/>
<path fill="#FA5656" opacity="1.000000" stroke="none" 
	d="
M339.132996,286.842163 
	C336.714752,286.604645 334.737244,286.401489 332.110626,286.131683 
	C331.447632,292.827850 330.802246,299.346039 330.109589,306.341705 
	C334.248596,306.843445 337.962036,307.293610 342.146729,307.800903 
	C341.879913,310.912781 341.646973,313.629700 341.397034,316.544678 
	C337.216187,316.307251 333.601562,316.101990 329.334351,315.859680 
	C328.611145,323.131592 327.912018,330.161285 327.161835,337.704498 
	C331.410675,338.253815 335.471313,338.778809 339.785767,339.336609 
	C339.785767,342.023193 339.785767,344.734741 339.785767,348.326111 
	C331.633148,347.663025 323.956543,347.038666 315.519867,346.352478 
	C317.706207,322.753174 319.846619,299.649841 322.049927,275.867340 
	C329.973846,276.596497 337.511780,277.290161 345.649323,278.038971 
	C345.341156,281.133362 345.071381,283.842590 344.769257,286.876526 
	C342.822571,286.876526 341.198151,286.876526 339.132996,286.842163 
z"/>
<path fill="#FB5656" opacity="1.000000" stroke="none" 
	d="
M301.994202,335.991394 
	C304.433411,335.996521 306.422791,335.996521 308.857605,335.996521 
	C308.857605,339.283966 308.857605,342.155334 308.857605,344.600800 
	C300.978546,344.600800 293.363800,344.691345 285.758698,344.462372 
	C284.987854,344.439209 283.589752,342.443451 283.658234,341.443573 
	C283.906067,337.823486 284.203369,334.093842 285.295197,330.664459 
	C289.586700,317.184784 294.196625,303.806641 298.664093,290.382721 
	C299.282684,288.523956 299.765747,286.620087 300.480164,284.155457 
	C296.080597,283.711060 292.185822,283.317627 287.713470,282.865875 
	C287.839081,280.005829 287.959015,277.274445 288.109741,273.841980 
	C296.327271,274.248962 304.212524,274.639465 312.981171,275.073730 
	C312.317108,279.369507 312.199341,283.217194 311.091553,286.754822 
	C306.665314,300.890289 301.918274,314.925171 297.325775,329.008911 
	C296.676056,331.001434 296.224304,333.058533 295.537048,335.622620 
	C297.979919,335.770508 299.762146,335.878387 301.994202,335.991394 
z"/>
<path fill="#FB5656" opacity="1.000000" stroke="none" 
	d="
M284.431793,209.466003 
	C280.239777,209.879181 276.147125,209.921997 271.610046,209.897858 
	C273.437012,203.921097 275.708435,198.011307 278.305634,191.253860 
	C282.968536,194.230957 286.348755,196.389084 289.555176,198.436279 
	C287.720398,202.329117 286.125793,205.712387 284.431793,209.466003 
z"/>
<path fill="#464242" opacity="1.000000" stroke="none" 
	d="
M274.526306,129.470551 
	C271.369659,125.354736 270.851471,121.235832 273.335205,117.115509 
	C275.480103,113.557327 278.913086,111.888069 283.063385,112.401741 
	C287.196808,112.913322 290.105713,115.300850 291.424805,119.280334 
	C292.887207,123.692230 291.703888,127.515892 288.108276,130.412048 
	C284.477600,133.336456 279.634552,133.007355 274.526306,129.470551 
z"/>
</svg>