<?xml version="1.0" encoding="UTF-8"?>
<!DOCTYPE svg PUBLIC "-//W3C//DTD SVG 1.1//EN" "http://www.w3.org/Graphics/SVG/1.1/DTD/svg11.dtd">
<svg xmlns="http://www.w3.org/2000/svg" version="1.1" width="96px" height="96px" style="shape-rendering:geometricPrecision; text-rendering:geometricPrecision; image-rendering:optimizeQuality; fill-rule:evenodd; clip-rule:evenodd" xmlns:xlink="http://www.w3.org/1999/xlink">
<g><path style="opacity:1" fill="#ab3c5d" d="M 70.5,13.5 C 69.609,14.1098 68.609,14.4431 67.5,14.5C 68.221,12.6182 69.221,12.2848 70.5,13.5 Z"/></g>
<g><path style="opacity:1" fill="#5d5162" d="M 70.5,13.5 C 71.3327,18.3672 68.9994,21.0339 63.5,21.5C 63.5,19.8333 63.5,18.1667 63.5,16.5C 64.8333,15.8333 66.1667,15.1667 67.5,14.5C 68.609,14.4431 69.609,14.1098 70.5,13.5 Z"/></g>
<g><path style="opacity:0.908" fill="#f30657" d="M 63.5,16.5 C 63.5,18.1667 63.5,19.8333 63.5,21.5C 62.325,21.281 61.325,21.6143 60.5,22.5C 62.6356,30.2392 64.9689,37.9058 67.5,45.5C 67.7497,47.674 68.7497,49.3406 70.5,50.5C 70.3284,51.4916 70.6618,52.1583 71.5,52.5C 71.9675,56.4439 73.3008,60.1105 75.5,63.5C 74.1117,66.0789 72.6117,66.0789 71,63.5C 69.1534,59.8068 67.3201,56.1401 65.5,52.5C 65.3404,50.847 64.6737,49.5137 63.5,48.5C 62.9536,46.6968 62.1203,45.0302 61,43.5C 57.2244,49.391 53.7244,55.391 50.5,61.5C 47.418,59.819 44.0847,59.1524 40.5,59.5C 38.8365,53.3446 36.6698,47.3446 34,41.5C 32.878,43.4068 32.0447,45.4068 31.5,47.5C 29.7868,48.6354 29.1201,50.302 29.5,52.5C 27.4284,54.3495 26.0951,56.6829 25.5,59.5C 24.1667,59.5 22.8333,59.5 21.5,59.5C 22.3705,56.8877 23.0372,54.221 23.5,51.5C 24.1667,51.5 24.5,51.1667 24.5,50.5C 25.4408,48.9505 26.1075,47.2838 26.5,45.5C 28.023,41.619 29.6897,37.7857 31.5,34C 30.7334,32.5295 30.0668,31.0295 29.5,29.5C 30.6354,27.7868 32.302,27.1201 34.5,27.5C 34.8769,29.258 35.5435,30.9246 36.5,32.5C 43.8107,33.6646 51.144,33.8313 58.5,33C 57.0937,28.5456 55.7604,24.0456 54.5,19.5C 54.7093,18.914 55.0426,18.414 55.5,18C 58.2066,17.6049 60.8733,17.1049 63.5,16.5 Z M 38.5,37.5 C 45.175,37.3337 51.8417,37.5004 58.5,38C 53.9591,44.2455 49.7925,50.7455 46,57.5C 43.2087,50.9219 40.7087,44.2552 38.5,37.5 Z M 40.5,59.5 C 40.1667,59.5 39.8333,59.5 39.5,59.5C 38.3169,54.455 35.6502,50.455 31.5,47.5C 32.0447,45.4068 32.878,43.4068 34,41.5C 36.6698,47.3446 38.8365,53.3446 40.5,59.5 Z M 32.5,56.5 C 33.4013,57.2905 34.0679,58.2905 34.5,59.5C 32.8333,59.5 31.1667,59.5 29.5,59.5C 30.1667,58.1667 31.1667,57.1667 32.5,56.5 Z M 62.5,56.5 C 69.7081,60.8816 69.0414,62.5483 60.5,61.5C 60.4021,59.4471 61.0687,57.7804 62.5,56.5 Z"/></g>
<g><path style="opacity:0.943" fill="#880d4e" d="M 34.5,27.5 C 32.302,27.1201 30.6354,27.7868 29.5,29.5C 27.5,29.5 25.5,29.5 23.5,29.5C 23.5,26.8333 23.5,24.1667 23.5,21.5C 29.5,21.5 35.5,21.5 41.5,21.5C 41.762,22.9778 41.4287,24.3112 40.5,25.5C 38.3432,26.0505 36.3432,26.7171 34.5,27.5 Z"/></g>
<g><path style="opacity:0.942" fill="#617d8b" d="M 26.5,45.5 C 26.1075,47.2838 25.4408,48.9505 24.5,50.5C 24.1667,50.5 23.8333,50.5 23.5,50.5C 22.1667,49.1667 20.8333,49.1667 19.5,50.5C 17.4471,50.4021 15.7804,51.0687 14.5,52.5C 12.1667,52.8333 10.8333,54.1667 10.5,56.5C 9.06873,57.7804 8.40206,59.4471 8.5,61.5C 7.16667,62.8333 7.16667,64.1667 8.5,65.5C 8.40206,67.5529 9.06873,69.2196 10.5,70.5C 10.8333,72.8333 12.1667,74.1667 14.5,74.5C 15.7804,75.9313 17.4471,76.5979 19.5,76.5C 20.8333,77.8333 22.1667,77.8333 23.5,76.5C 25.5529,76.5979 27.2196,75.9313 28.5,74.5C 30.8333,74.1667 32.1667,72.8333 32.5,70.5C 33.1667,70.5 33.5,70.1667 33.5,69.5C 35.2161,69.6287 36.8828,69.962 38.5,70.5C 35.3461,77.9176 29.6794,81.5843 21.5,81.5C 14.2287,81.7251 8.72873,78.7251 5,72.5C 0.278423,53.9214 7.44509,44.9214 26.5,45.5 Z M 19.5,76.5 C 17.4471,76.5979 15.7804,75.9313 14.5,74.5C 18.8816,67.2919 20.5483,67.9586 19.5,76.5 Z M 28.5,74.5 C 27.2196,75.9313 25.5529,76.5979 23.5,76.5C 22.4517,67.9586 24.1184,67.2919 28.5,74.5 Z"/></g>
<g><path style="opacity:0.938" fill="#617d8b" d="M 67.5,45.5 C 85.3171,43.8165 93.1505,51.8165 91,69.5C 86.6195,79.9791 78.7862,83.8124 67.5,81C 57.0209,76.6195 53.1876,68.7862 56,57.5C 57.1107,53.2434 59.6107,50.2434 63.5,48.5C 64.6737,49.5137 65.3404,50.847 65.5,52.5C 63.7376,53.2623 62.7376,54.5956 62.5,56.5C 61.0687,57.7804 60.4021,59.4471 60.5,61.5C 59.1667,62.8333 59.1667,64.1667 60.5,65.5C 60.4021,67.5529 61.0687,69.2196 62.5,70.5C 62.8333,72.8333 64.1667,74.1667 66.5,74.5C 67.7804,75.9313 69.4471,76.5979 71.5,76.5C 72.8333,77.8333 74.1667,77.8333 75.5,76.5C 77.5529,76.5979 79.2196,75.9313 80.5,74.5C 82.8333,74.1667 84.1667,72.8333 84.5,70.5C 85.9313,69.2196 86.5979,67.5529 86.5,65.5C 87.8333,64.1667 87.8333,62.8333 86.5,61.5C 86.5979,59.4471 85.9313,57.7804 84.5,56.5C 84.1667,54.1667 82.8333,52.8333 80.5,52.5C 79.2196,51.0687 77.5529,50.4021 75.5,50.5C 74.1667,49.1667 72.8333,49.1667 71.5,50.5C 71.1667,50.5 70.8333,50.5 70.5,50.5C 68.7497,49.3406 67.7497,47.674 67.5,45.5 Z M 75.5,50.5 C 77.5529,50.4021 79.2196,51.0687 80.5,52.5C 76.1184,59.7081 74.4517,59.0414 75.5,50.5 Z M 62.5,56.5 C 69.7081,60.8816 69.0414,62.5483 60.5,61.5C 60.4021,59.4471 61.0687,57.7804 62.5,56.5 Z M 84.5,56.5 C 85.9313,57.7804 86.5979,59.4471 86.5,61.5C 77.9586,62.5483 77.2919,60.8816 84.5,56.5 Z M 60.5,65.5 C 69.0414,64.4517 69.7081,66.1184 62.5,70.5C 61.0687,69.2196 60.4021,67.5529 60.5,65.5 Z M 86.5,65.5 C 86.5979,67.5529 85.9313,69.2196 84.5,70.5C 77.2919,66.1184 77.9586,64.4517 86.5,65.5 Z M 71.5,76.5 C 69.4471,76.5979 67.7804,75.9313 66.5,74.5C 70.8816,67.2919 72.5483,67.9586 71.5,76.5 Z M 80.5,74.5 C 79.2196,75.9313 77.5529,76.5979 75.5,76.5C 74.4517,67.9586 76.1184,67.2919 80.5,74.5 Z"/></g>
<g><path style="opacity:0.926" fill="#637d8b" d="M 31.5,47.5 C 35.6502,50.455 38.3169,54.455 39.5,59.5C 37.8333,59.5 36.1667,59.5 34.5,59.5C 34.0679,58.2905 33.4013,57.2905 32.5,56.5C 32.2624,54.5956 31.2624,53.2623 29.5,52.5C 29.1201,50.302 29.7868,48.6354 31.5,47.5 Z"/></g>
<g><path style="opacity:0.988" fill="#ced6da" d="M 75.5,50.5 C 74.4517,59.0414 76.1184,59.7081 80.5,52.5C 82.8333,52.8333 84.1667,54.1667 84.5,56.5C 77.2919,60.8816 77.9586,62.5483 86.5,61.5C 87.8333,62.8333 87.8333,64.1667 86.5,65.5C 77.9586,64.4517 77.2919,66.1184 84.5,70.5C 84.1667,72.8333 82.8333,74.1667 80.5,74.5C 76.1184,67.2919 74.4517,67.9586 75.5,76.5C 74.1667,77.8333 72.8333,77.8333 71.5,76.5C 72.5483,67.9586 70.8816,67.2919 66.5,74.5C 64.1667,74.1667 62.8333,72.8333 62.5,70.5C 69.7081,66.1184 69.0414,64.4517 60.5,65.5C 59.1667,64.1667 59.1667,62.8333 60.5,61.5C 69.0414,62.5483 69.7081,60.8816 62.5,56.5C 62.7376,54.5956 63.7376,53.2623 65.5,52.5C 67.3201,56.1401 69.1534,59.8068 71,63.5C 72.6117,66.0789 74.1117,66.0789 75.5,63.5C 73.3008,60.1105 71.9675,56.4439 71.5,52.5C 71.5,51.8333 71.5,51.1667 71.5,50.5C 72.8333,49.1667 74.1667,49.1667 75.5,50.5 Z"/></g>
<g><path style="opacity:0.847" fill="#cfd4d9" d="M 29.5,52.5 C 31.2624,53.2623 32.2624,54.5956 32.5,56.5C 31.1667,57.1667 30.1667,58.1667 29.5,59.5C 28.1667,59.5 26.8333,59.5 25.5,59.5C 26.0951,56.6829 27.4284,54.3495 29.5,52.5 Z"/></g>
<g><path style="opacity:0.932" fill="#ced6da" d="M 23.5,50.5 C 23.5,50.8333 23.5,51.1667 23.5,51.5C 23.0372,54.221 22.3705,56.8877 21.5,59.5C 18.0451,60.1284 16.8785,62.1284 18,65.5C 19.1711,66.8932 20.6711,67.7265 22.5,68C 25.544,68.3629 28.544,68.8629 31.5,69.5C 31.5,70.1667 31.8333,70.5 32.5,70.5C 32.1667,72.8333 30.8333,74.1667 28.5,74.5C 24.1184,67.2919 22.4517,67.9586 23.5,76.5C 22.1667,77.8333 20.8333,77.8333 19.5,76.5C 20.5483,67.9586 18.8816,67.2919 14.5,74.5C 12.1667,74.1667 10.8333,72.8333 10.5,70.5C 17.7081,66.1184 17.0414,64.4517 8.5,65.5C 7.16667,64.1667 7.16667,62.8333 8.5,61.5C 17.0414,62.5483 17.7081,60.8816 10.5,56.5C 10.8333,54.1667 12.1667,52.8333 14.5,52.5C 18.8816,59.7081 20.5483,59.0414 19.5,50.5C 20.8333,49.1667 22.1667,49.1667 23.5,50.5 Z"/></g>
<g><path style="opacity:0.983" fill="#ad1858" d="M 21.5,59.5 C 22.8333,59.5 24.1667,59.5 25.5,59.5C 26.8333,59.5 28.1667,59.5 29.5,59.5C 31.1667,59.5 32.8333,59.5 34.5,59.5C 36.1667,59.5 37.8333,59.5 39.5,59.5C 39.8333,59.5 40.1667,59.5 40.5,59.5C 44.0847,59.1524 47.418,59.819 50.5,61.5C 52.0268,64.7956 51.6935,67.9623 49.5,71C 45.7446,71.7554 42.0779,71.5887 38.5,70.5C 36.8828,69.962 35.2161,69.6287 33.5,69.5C 32.8333,69.5 32.1667,69.5 31.5,69.5C 28.544,68.8629 25.544,68.3629 22.5,68C 20.6711,67.7265 19.1711,66.8932 18,65.5C 16.8785,62.1284 18.0451,60.1284 21.5,59.5 Z"/></g>
</svg>
