<?xml version="1.0" encoding="UTF-8"?>
<!DOCTYPE svg PUBLIC "-//W3C//DTD SVG 1.1//EN" "http://www.w3.org/Graphics/SVG/1.1/DTD/svg11.dtd">
<svg xmlns="http://www.w3.org/2000/svg" version="1.1" width="80px" height="80px" style="shape-rendering:geometricPrecision; text-rendering:geometricPrecision; image-rendering:optimizeQuality; fill-rule:evenodd; clip-rule:evenodd" xmlns:xlink="http://www.w3.org/1999/xlink">
<g><path style="opacity:0.87" fill="#4b8cca" d="M 47.5,13.5 C 53.4254,13.1918 59.2588,13.5251 65,14.5C 67.0261,18.1154 66.0261,20.4487 62,21.5C 61.1667,21.1667 60.3333,20.8333 59.5,20.5C 61.9803,19.5846 62.6469,18.0846 61.5,16C 57.8333,15.3333 54.1667,15.3333 50.5,16C 53.1292,22.095 55.6292,28.2616 58,34.5C 73.1762,34.1823 79.5095,41.5157 77,56.5C 72.6524,64.9149 65.8191,67.7483 56.5,65C 47.5253,59.8483 45.0253,52.3483 49,42.5C 50.5967,39.7808 52.7634,37.6141 55.5,36C 54.7894,34.7453 53.956,33.5786 53,32.5C 47.4571,38.3741 42.2904,44.5408 37.5,51C 35.5273,51.4955 33.5273,51.6621 31.5,51.5C 31.1263,57.7466 28.1263,62.2466 22.5,65C 6.33333,67.5 -0.5,60.6667 2,44.5C 6.06288,36.5553 12.5629,33.5553 21.5,35.5C 22.4289,31.7157 23.7622,28.049 25.5,24.5C 25.1667,23.8333 24.8333,23.1667 24.5,22.5C 22.314,21.7792 20.1474,21.1125 18,20.5C 17.5065,18.8659 17.3398,17.1992 17.5,15.5C 22.8333,15.5 28.1667,15.5 33.5,15.5C 33.6495,16.552 33.4828,17.552 33,18.5C 31.2197,19.5937 29.3864,20.5937 27.5,21.5C 27.7093,22.086 28.0426,22.586 28.5,23C 35.8333,23.6667 43.1667,23.6667 50.5,23C 48.5965,20.1226 47.5965,16.9559 47.5,13.5 Z M 29.5,25.5 C 36.8635,25.1694 44.1968,25.5027 51.5,26.5C 51.7093,27.086 52.0426,27.586 52.5,28C 46.9799,34.0191 41.6465,40.1857 36.5,46.5C 33.5652,39.6957 31.2319,32.6957 29.5,25.5 Z M 31.5,44.5 C 29.7961,41.777 27.6295,39.4437 25,37.5C 24.4484,34.5808 25.1151,31.9141 27,29.5C 28.8102,34.4287 30.3102,39.4287 31.5,44.5 Z M 17.5,42.5 C 16.4243,45.8705 15.4243,49.2039 14.5,52.5C 17.8067,51.9492 21.1401,51.6159 24.5,51.5C 23.0586,58.0506 19.0586,60.2173 12.5,58C 7.16667,53 7.16667,48 12.5,43C 14.1341,42.5065 15.8008,42.3398 17.5,42.5 Z M 61.5,42.5 C 69.1238,42.9718 71.9571,46.9718 70,54.5C 65,59.8333 60,59.8333 55,54.5C 53.5189,49.8187 54.6856,46.1521 58.5,43.5C 59.5778,46.4021 60.2444,49.4021 60.5,52.5C 61.8333,52.5 63.1667,52.5 64.5,52.5C 63.5757,49.2039 62.5757,45.8705 61.5,42.5 Z M 20.5,43.5 C 23.0442,44.7079 24.3775,46.7079 24.5,49.5C 22.4727,49.6621 20.4727,49.4955 18.5,49C 19.8613,47.4157 20.528,45.5824 20.5,43.5 Z M 31.5,44.5 C 32.914,46.0439 33.2474,47.7106 32.5,49.5C 31.5481,47.9547 31.2148,46.288 31.5,44.5 Z"/></g>
<g><path style="opacity:0.92" fill="#94c8fa" d="M 17.5,42.5 C 15.8008,42.3398 14.1341,42.5065 12.5,43C 7.16667,48 7.16667,53 12.5,58C 19.0586,60.2173 23.0586,58.0506 24.5,51.5C 26.1667,51.5 27.8333,51.5 29.5,51.5C 28.3244,59.1729 23.8244,63.1729 16,63.5C 6.36132,61.9065 2.36132,56.2398 4,46.5C 7.24109,39.1293 12.7411,36.4626 20.5,38.5C 19.9649,40.261 18.9649,41.5943 17.5,42.5 Z"/></g>
<g><path style="opacity:0.922" fill="#94c9fa" d="M 58.5,43.5 C 54.6856,46.1521 53.5189,49.8187 55,54.5C 60,59.8333 65,59.8333 70,54.5C 71.9571,46.9718 69.1238,42.9718 61.5,42.5C 59.7868,41.3646 59.1201,39.698 59.5,37.5C 73.586,38.3387 78.086,45.3387 73,58.5C 67.4479,63.9122 61.2812,64.7456 54.5,61C 47.9206,53.9673 47.9206,46.9673 54.5,40C 57.1383,39.4912 58.4717,40.6578 58.5,43.5 Z M 61.5,42.5 C 69.1238,42.9718 71.9571,46.9718 70,54.5C 65,59.8333 60,59.8333 55,54.5C 53.5189,49.8187 54.6856,46.1521 58.5,43.5C 59.5778,46.4021 60.2444,49.4021 60.5,52.5C 61.8333,52.5 63.1667,52.5 64.5,52.5C 63.5757,49.2039 62.5757,45.8705 61.5,42.5 Z"/></g>
<g><path style="opacity:0.923" fill="#92c6f9" d="M 24.5,49.5 C 24.3775,46.7079 23.0442,44.7079 20.5,43.5C 21.7687,38.5076 23.9354,38.1742 27,42.5C 28.4114,44.6504 29.2447,46.9837 29.5,49.5C 27.8333,49.5 26.1667,49.5 24.5,49.5 Z"/></g>
</svg>
