<?xml version="1.0" encoding="UTF-8"?>
<!DOCTYPE svg PUBLIC "-//W3C//DTD SVG 1.1//EN" "http://www.w3.org/Graphics/SVG/1.1/DTD/svg11.dtd">
<svg xmlns="http://www.w3.org/2000/svg" version="1.1" width="64px" height="64px" style="shape-rendering:geometricPrecision; text-rendering:geometricPrecision; image-rendering:optimizeQuality; fill-rule:evenodd; clip-rule:evenodd" xmlns:xlink="http://www.w3.org/1999/xlink">
<g><path style="opacity:0.791" fill="#000000" d="M 63.5,34.5 C 63.5,37.8333 63.5,41.1667 63.5,44.5C 58.0469,52.9033 50.7135,54.7366 41.5,50C 36.9776,43.9444 36.311,37.4444 39.5,30.5C 36.7324,33.8416 34.0657,37.3416 31.5,41C 29.5273,41.4955 27.5273,41.6621 25.5,41.5C 25.1237,46.7555 22.457,50.2555 17.5,52C 9.38921,54.1014 3.38921,51.6014 -0.5,44.5C -0.5,41.1667 -0.5,37.8333 -0.5,34.5C 3.41102,27.7145 9.41102,24.8812 17.5,26C 21.9841,21.6446 21.3174,18.8112 15.5,17.5C 15.5,16.1667 15.5,14.8333 15.5,13.5C 19.5,13.5 23.5,13.5 27.5,13.5C 27.5,14.8333 27.5,16.1667 27.5,17.5C 26.5,17.5 25.5,17.5 24.5,17.5C 24.5,18.5 24.5,19.5 24.5,20.5C 30.8333,20.5 37.1667,20.5 43.5,20.5C 43.7394,18.5328 43.4061,16.6995 42.5,15C 40.1902,14.5034 37.8568,14.3367 35.5,14.5C 35.5,13.5 35.5,12.5 35.5,11.5C 39.1064,11.2108 42.6064,11.5442 46,12.5C 47.2956,22.1392 49.7956,31.4725 53.5,40.5C 52.2954,42.1376 50.9621,42.4709 49.5,41.5C 48.0392,38.6181 46.8725,35.6181 46,32.5C 41.2256,37.482 41.3923,42.3153 46.5,47C 55.6667,48.5 59.5,44.6667 58,35.5C 56.2545,33.2507 54.0879,31.5841 51.5,30.5C 50.7542,29.2638 50.4208,27.9305 50.5,26.5C 56.6503,26.4003 60.9836,29.067 63.5,34.5 Z M 26.5,23.5 C 30.226,23.1774 33.8927,23.5108 37.5,24.5C 35.1365,27.6985 32.9698,31.0319 31,34.5C 28.9525,31.0698 27.4525,27.4031 26.5,23.5 Z M 39.5,30.5 C 40.0507,27.7332 41.3841,25.3999 43.5,23.5C 44.6139,24.723 44.7805,26.0563 44,27.5C 42.3853,28.3862 40.8853,29.3862 39.5,30.5 Z M 24.5,32.5 C 22.0505,29.8654 20.3838,30.5321 19.5,34.5C 20.2458,35.7362 20.5792,37.0695 20.5,38.5C 18.712,38.7852 17.0453,38.4519 15.5,37.5C 18,33.8333 20.5,30.1667 23,26.5C 23.813,28.4357 24.313,30.4357 24.5,32.5 Z M 8.5,31.5 C 14.0533,31.0254 14.8866,32.6921 11,36.5C 10.5065,38.1341 10.3398,39.8008 10.5,41.5C 13.8984,41.1796 17.2317,41.513 20.5,42.5C 15.7302,48.7415 10.5635,49.0748 5,43.5C 3.59335,38.6427 4.76002,34.6427 8.5,31.5 Z M 25.5,34.5 C 26.2485,35.531 26.9152,36.6976 27.5,38C 27.1667,38.1667 26.8333,38.3333 26.5,38.5C 25.5713,37.3112 25.238,35.9778 25.5,34.5 Z"/></g>
</svg>
