<?xml version="1.0" encoding="UTF-8"?>
<!DOCTYPE svg PUBLIC "-//W3C//DTD SVG 1.1//EN" "http://www.w3.org/Graphics/SVG/1.1/DTD/svg11.dtd">
<svg xmlns="http://www.w3.org/2000/svg" version="1.1" width="100px" height="100px" style="shape-rendering:geometricPrecision; text-rendering:geometricPrecision; image-rendering:optimizeQuality; fill-rule:evenodd; clip-rule:evenodd" xmlns:xlink="http://www.w3.org/1999/xlink">
<g><path style="opacity:0.984" fill="#1f212b" d="M 6.5,14.5 C 13.8333,13.1667 16.8333,16.1667 15.5,23.5C 39.169,23.3334 62.8357,23.5 86.5,24C 87,24.5 87.5,25 88,25.5C 88.6667,40.8333 88.6667,56.1667 88,71.5C 85.0924,73.0253 81.9257,74.0253 78.5,74.5C 79.325,75.3857 80.325,75.719 81.5,75.5C 81.5,77.1667 81.5,78.8333 81.5,80.5C 78.8333,80.5 76.1667,80.5 73.5,80.5C 73.5,78.1667 73.5,75.8333 73.5,73.5C 72.5,73.5 71.5,73.5 70.5,73.5C 70.5,75.8333 70.5,78.1667 70.5,80.5C 61.1667,80.5 51.8333,80.5 42.5,80.5C 42.5,78.1667 42.5,75.8333 42.5,73.5C 41.5,73.5 40.5,73.5 39.5,73.5C 39.5,75.8333 39.5,78.1667 39.5,80.5C 36.1667,80.5 32.8333,80.5 29.5,80.5C 29.5,78.1667 29.5,75.8333 29.5,73.5C 28.5,73.5 27.5,73.5 26.5,73.5C 26.5,75.8333 26.5,78.1667 26.5,80.5C 24.1667,80.5 21.8333,80.5 19.5,80.5C 19.5,78.1667 19.5,75.8333 19.5,73.5C 18.1667,73.5 16.8333,73.5 15.5,73.5C 15.8174,76.5719 15.4841,79.5719 14.5,82.5C 13.5008,69.1833 13.1675,55.85 13.5,42.5C 12.1667,42.5 10.8333,42.5 9.5,42.5C 9.5,38.5 9.5,34.5 9.5,30.5C 10.8333,30.5 12.1667,30.5 13.5,30.5C 13.6653,26.8183 13.4986,23.1516 13,19.5C 10.8528,17.6322 8.6861,15.9655 6.5,14.5 Z"/></g>
<g><path style="opacity:1" fill="#5fbb8f" d="M 15.5,25.5 C 38.8357,25.3334 62.169,25.5 85.5,26C 86.1587,33.4237 86.492,40.9237 86.5,48.5C 86.492,56.0763 86.1587,63.5763 85.5,71C 62.169,71.5 38.8357,71.6666 15.5,71.5C 15.5,70.1667 15.5,68.8333 15.5,67.5C 17.1667,67.5 18.8333,67.5 20.5,67.5C 20.5,65.1667 20.5,62.8333 20.5,60.5C 18.8333,60.5 17.1667,60.5 15.5,60.5C 15.5,59.5 15.5,58.5 15.5,57.5C 17.1667,57.5 18.8333,57.5 20.5,57.5C 20.5,54.1667 20.5,50.8333 20.5,47.5C 18.8333,47.5 17.1667,47.5 15.5,47.5C 15.5,46.1667 15.5,44.8333 15.5,43.5C 17.5,43.5 19.5,43.5 21.5,43.5C 21.5,38.8333 21.5,34.1667 21.5,29.5C 19.5,29.5 17.5,29.5 15.5,29.5C 15.5,28.1667 15.5,26.8333 15.5,25.5 Z"/></g>
<g><path style="opacity:1" fill="#293739" d="M 81.5,30.5 C 74.5885,29.2402 74.2552,28.7402 80.5,29C 81.056,29.3826 81.3893,29.8826 81.5,30.5 Z"/></g>
<g><path style="opacity:1" fill="#9dc4e7" d="M 15.5,30.5 C 17.0481,30.8212 17.7148,31.8212 17.5,33.5C 18.5,33.5 19.5,33.5 20.5,33.5C 20.5,35.5 20.5,37.5 20.5,39.5C 19.5,39.5 18.5,39.5 17.5,39.5C 17.719,40.675 17.3857,41.675 16.5,42.5C 15.5091,38.5546 15.1758,34.5546 15.5,30.5 Z"/></g>
<g><path style="opacity:1" fill="#3a83c1" d="M 18.5,30.5 C 20.337,30.6395 20.6704,31.3061 19.5,32.5C 18.7025,32.0431 18.3691,31.3764 18.5,30.5 Z"/></g>
<g><path style="opacity:1" fill="#37383c" d="M 25.5,29.5 C 27.8333,29.5 30.1667,29.5 32.5,29.5C 32.5,31.8333 32.5,34.1667 32.5,36.5C 30.1667,36.5 27.8333,36.5 25.5,36.5C 25.5,34.1667 25.5,31.8333 25.5,29.5 Z"/></g>
<g><path style="opacity:1" fill="#edecd8" d="M 10.5,31.5 C 11.5,31.5 12.5,31.5 13.5,31.5C 13.5,34.8333 13.5,38.1667 13.5,41.5C 12.5,41.5 11.5,41.5 10.5,41.5C 10.5,38.1667 10.5,34.8333 10.5,31.5 Z"/></g>
<g><path style="opacity:1" fill="#a2a1b1" d="M 40.5,30.5 C 41.1667,30.5 41.5,30.8333 41.5,31.5C 41.9342,34.1662 40.9342,35.3329 38.5,35C 36.9442,32.499 37.6108,30.999 40.5,30.5 Z"/></g>
<g><path style="opacity:1" fill="#354347" d="M 68.5,32.5 C 63.8233,31.2591 59.1567,31.2591 54.5,32.5C 56.2897,31.0027 58.4563,30.336 61,30.5C 63.8211,30.4078 66.3211,31.0744 68.5,32.5 Z"/></g>
<g><path style="opacity:1" fill="#b4cbdc" d="M 68.5,32.5 C 69.4916,32.3284 70.1583,32.6618 70.5,33.5C 72.1667,35.8333 74.1667,37.8333 76.5,39.5C 77.3382,39.8417 77.6716,40.5084 77.5,41.5C 78.8333,46.1667 78.8333,50.8333 77.5,55.5C 77.6716,56.4916 77.3382,57.1583 76.5,57.5C 74.1667,59.1667 72.1667,61.1667 70.5,63.5C 70.1583,64.3382 69.4916,64.6716 68.5,64.5C 63.8333,65.8333 59.1667,65.8333 54.5,64.5C 53.5084,64.6716 52.8417,64.3382 52.5,63.5C 50.8333,61.1667 48.8333,59.1667 46.5,57.5C 45.6618,57.1583 45.3284,56.4916 45.5,55.5C 44.2591,50.8233 44.2591,46.1567 45.5,41.5C 45.3284,40.5084 45.6618,39.8417 46.5,39.5C 48.8333,37.8333 50.8333,35.8333 52.5,33.5C 52.8417,32.6618 53.5084,32.3284 54.5,32.5C 59.1567,31.2591 63.8233,31.2591 68.5,32.5 Z"/></g>
<g><path style="opacity:1" fill="#435659" d="M 70.5,33.5 C 73.5,34.5 75.5,36.5 76.5,39.5C 74.1667,37.8333 72.1667,35.8333 70.5,33.5 Z"/></g>
<g><path style="opacity:1" fill="#4a5d5d" d="M 40.5,30.5 C 37.6108,30.999 36.9442,32.499 38.5,35C 40.9342,35.3329 41.9342,34.1662 41.5,31.5C 43.3488,35.4938 42.0155,36.9938 37.5,36C 34.6736,33.1359 35.1736,30.9692 39,29.5C 39.7648,29.5699 40.2648,29.9033 40.5,30.5 Z"/></g>
<g><path style="opacity:1" fill="#21252d" d="M 81.5,30.5 C 82.1174,30.6107 82.6174,30.944 83,31.5C 83.6667,40.5 83.6667,49.5 83,58.5C 82.7807,49.1203 82.2807,39.7869 81.5,30.5 Z"/></g>
<g><path style="opacity:1" fill="#45555a" d="M 52.5,33.5 C 50.8333,35.8333 48.8333,37.8333 46.5,39.5C 47.5,36.5 49.5,34.5 52.5,33.5 Z"/></g>
<g><path style="opacity:1" fill="#496686" d="M 55.5,36.5 C 57.7359,40.6201 57.5692,44.6201 55,48.5C 53.5589,47.7402 52.0589,47.0736 50.5,46.5C 49.5713,45.3112 49.238,43.9778 49.5,42.5C 50.5,39.5 52.5,37.5 55.5,36.5 Z"/></g>
<g><path style="opacity:1" fill="#496484" d="M 67.5,36.5 C 75.7844,41.2213 77.6178,47.888 73,56.5C 71.549,58.4641 69.7157,59.7974 67.5,60.5C 64.8877,56.1034 65.221,51.9368 68.5,48C 64.7446,45.2157 64.7446,42.5491 68.5,40C 66.3339,40.9225 64.0005,41.7559 61.5,42.5C 58.8313,42.4928 57.4979,41.1594 57.5,38.5C 58.0794,36.5393 59.4128,35.5393 61.5,35.5C 63.4534,36.1556 65.4534,36.4889 67.5,36.5 Z"/></g>
<g><path style="opacity:1" fill="#3a83c1" d="M 18.5,40.5 C 20.337,40.6395 20.6704,41.3061 19.5,42.5C 18.7025,42.0431 18.3691,41.3764 18.5,40.5 Z"/></g>
<g><path style="opacity:1" fill="#343e4e" d="M 67.5,36.5 C 65.4534,36.4889 63.4534,36.1556 61.5,35.5C 59.4128,35.5393 58.0794,36.5393 57.5,38.5C 57.4979,41.1594 58.8313,42.4928 61.5,42.5C 64.0005,41.7559 66.3339,40.9225 68.5,40C 64.7446,42.5491 64.7446,45.2157 68.5,48C 65.221,51.9368 64.8877,56.1034 67.5,60.5C 67.1583,61.3382 66.4916,61.6716 65.5,61.5C 66.4628,55.977 64.1295,53.477 58.5,54C 56.3291,50.7185 53.3291,48.5519 49.5,47.5C 48.9426,49.7175 48.9426,52.0509 49.5,54.5C 48.0277,52.8825 47.361,50.8825 47.5,48.5C 47.361,46.1175 48.0277,44.1175 49.5,42.5C 49.238,43.9778 49.5713,45.3112 50.5,46.5C 52.0589,47.0736 53.5589,47.7402 55,48.5C 57.5692,44.6201 57.7359,40.6201 55.5,36.5C 57.1175,35.0277 59.1175,34.361 61.5,34.5C 63.8825,34.361 65.8825,35.0277 67.5,36.5 Z"/></g>
<g><path style="opacity:1" fill="#c1d9eb" d="M 59.5,43.5 C 66.8211,44.3193 68.1545,47.486 63.5,53C 56.075,52.4845 54.7416,49.3178 59.5,43.5 Z"/></g>
<g><path style="opacity:1" fill="#20232c" d="M 25.5,45.5 C 27.8333,45.5 30.1667,45.5 32.5,45.5C 32.5,46.8333 32.5,48.1667 32.5,49.5C 30.1667,49.5 27.8333,49.5 25.5,49.5C 25.5,48.1667 25.5,46.8333 25.5,45.5 Z"/></g>
<g><path style="opacity:1" fill="#b1b1c1" d="M 26.5,46.5 C 28.288,46.2148 29.9547,46.5481 31.5,47.5C 30.6667,47.8333 29.8333,48.1667 29,48.5C 27.6244,48.3158 26.7911,47.6491 26.5,46.5 Z"/></g>
<g><path style="opacity:1" fill="#36454a" d="M 45.5,41.5 C 44.2591,46.1567 44.2591,50.8233 45.5,55.5C 43.9827,53.5379 43.3161,51.2046 43.5,48.5C 43.3161,45.7954 43.9827,43.4621 45.5,41.5 Z"/></g>
<g><path style="opacity:1" fill="#3a4a4e" d="M 77.5,41.5 C 79.0173,43.4621 79.6839,45.7954 79.5,48.5C 79.6839,51.2046 79.0173,53.5379 77.5,55.5C 78.8333,50.8333 78.8333,46.1667 77.5,41.5 Z"/></g>
<g><path style="opacity:1" fill="#edecd8" d="M 15.5,48.5 C 16.8333,48.5 18.1667,48.5 19.5,48.5C 19.5,51.1667 19.5,53.8333 19.5,56.5C 18.1667,56.5 16.8333,56.5 15.5,56.5C 15.5,53.8333 15.5,51.1667 15.5,48.5 Z"/></g>
<g><path style="opacity:1" fill="#20232c" d="M 25.5,51.5 C 27.8333,51.5 30.1667,51.5 32.5,51.5C 32.5,52.8333 32.5,54.1667 32.5,55.5C 30.1667,55.5 27.8333,55.5 25.5,55.5C 25.5,54.1667 25.5,52.8333 25.5,51.5 Z"/></g>
<g><path style="opacity:1" fill="#b1b1c1" d="M 26.5,52.5 C 28.288,52.2148 29.9547,52.5481 31.5,53.5C 30.6667,53.8333 29.8333,54.1667 29,54.5C 27.6244,54.3158 26.7911,53.6491 26.5,52.5 Z"/></g>
<g><path style="opacity:1" fill="#475e5f" d="M 40.5,52.5 C 41.6491,52.7911 42.3158,53.6244 42.5,55C 42.3333,55.8333 42.1667,56.6667 42,57.5C 40.1862,58.7596 38.3529,58.7596 36.5,57.5C 34.8853,54.515 35.7186,52.515 39,51.5C 39.7648,51.5699 40.2648,51.9033 40.5,52.5 Z"/></g>
<g><path style="opacity:1" fill="#bad2e3" d="M 40.5,52.5 C 42.2838,55.8081 41.2838,57.4747 37.5,57.5C 36.9162,54.715 37.9162,53.0483 40.5,52.5 Z"/></g>
<g><path style="opacity:1" fill="#496482" d="M 65.5,61.5 C 58.3303,63.5858 52.9969,61.2524 49.5,54.5C 48.9426,52.0509 48.9426,49.7175 49.5,47.5C 53.3291,48.5519 56.3291,50.7185 58.5,54C 64.1295,53.477 66.4628,55.977 65.5,61.5 Z"/></g>
<g><path style="opacity:1" fill="#20232c" d="M 25.5,57.5 C 27.8333,57.5 30.1667,57.5 32.5,57.5C 32.5,58.8333 32.5,60.1667 32.5,61.5C 30.1667,61.5 27.8333,61.5 25.5,61.5C 25.5,60.1667 25.5,58.8333 25.5,57.5 Z"/></g>
<g><path style="opacity:1" fill="#b1b1c1" d="M 26.5,58.5 C 28.288,58.2148 29.9547,58.5481 31.5,59.5C 30.6667,59.8333 29.8333,60.1667 29,60.5C 27.6244,60.3158 26.7911,59.6491 26.5,58.5 Z"/></g>
<g><path style="opacity:1" fill="#435659" d="M 46.5,57.5 C 48.8333,59.1667 50.8333,61.1667 52.5,63.5C 49.5,62.5 47.5,60.5 46.5,57.5 Z"/></g>
<g><path style="opacity:1" fill="#405456" d="M 76.5,57.5 C 75.5,60.5 73.5,62.5 70.5,63.5C 72.1667,61.1667 74.1667,59.1667 76.5,57.5 Z"/></g>
<g><path style="opacity:1" fill="#edecd8" d="M 15.5,61.5 C 16.8333,61.5 18.1667,61.5 19.5,61.5C 19.5,63.1667 19.5,64.8333 19.5,66.5C 18.1667,66.5 16.8333,66.5 15.5,66.5C 15.5,64.8333 15.5,63.1667 15.5,61.5 Z"/></g>
<g><path style="opacity:1" fill="#20232c" d="M 25.5,63.5 C 27.8333,63.5 30.1667,63.5 32.5,63.5C 32.5,64.8333 32.5,66.1667 32.5,67.5C 30.1667,67.5 27.8333,67.5 25.5,67.5C 25.5,66.1667 25.5,64.8333 25.5,63.5 Z"/></g>
<g><path style="opacity:1" fill="#475e5f" d="M 40.5,61.5 C 41.6491,61.7911 42.3158,62.6244 42.5,64C 42.3333,64.8333 42.1667,65.6667 42,66.5C 40.1862,67.7596 38.3529,67.7596 36.5,66.5C 34.8853,63.515 35.7186,61.515 39,60.5C 39.7648,60.5699 40.2648,60.9033 40.5,61.5 Z"/></g>
<g><path style="opacity:1" fill="#bad2e3" d="M 40.5,61.5 C 42.2838,64.8081 41.2838,66.4747 37.5,66.5C 36.9162,63.715 37.9162,62.0483 40.5,61.5 Z"/></g>
<g><path style="opacity:1" fill="#b1b1c1" d="M 26.5,64.5 C 28.288,64.2148 29.9547,64.5481 31.5,65.5C 30.6667,65.8333 29.8333,66.1667 29,66.5C 27.6244,66.3158 26.7911,65.6491 26.5,64.5 Z"/></g>
<g><path style="opacity:1" fill="#38454b" d="M 54.5,64.5 C 59.1667,65.8333 63.8333,65.8333 68.5,64.5C 66.3211,65.9256 63.8211,66.5922 61,66.5C 58.4563,66.664 56.2897,65.9973 54.5,64.5 Z"/></g>
<g><path style="opacity:1" fill="#60bd90" d="M 20.5,73.5 C 22.1667,73.5 23.8333,73.5 25.5,73.5C 25.5,75.5 25.5,77.5 25.5,79.5C 23.8333,79.5 22.1667,79.5 20.5,79.5C 20.5,77.5 20.5,75.5 20.5,73.5 Z"/></g>
<g><path style="opacity:1" fill="#e4d464" d="M 30.5,73.5 C 33.1667,73.5 35.8333,73.5 38.5,73.5C 38.7989,75.604 38.4656,77.604 37.5,79.5C 36.5,78.1667 35.5,78.1667 34.5,79.5C 33.7189,78.2713 33.2189,76.938 33,75.5C 32.7811,76.938 32.2811,78.2713 31.5,79.5C 30.5344,77.604 30.2011,75.604 30.5,73.5 Z"/></g>
<g><path style="opacity:1" fill="#ead966" d="M 43.5,73.5 C 52.1667,73.5 60.8333,73.5 69.5,73.5C 69.7989,75.604 69.4656,77.604 68.5,79.5C 67.7189,78.2713 67.2189,76.938 67,75.5C 66,80.8333 65,80.8333 64,75.5C 63,80.8333 62,80.8333 61,75.5C 60,80.8333 59,80.8333 58,75.5C 57,80.8333 56,80.8333 55,75.5C 54.7811,76.938 54.2811,78.2713 53.5,79.5C 52.5,78.1667 51.5,78.1667 50.5,79.5C 49.7189,78.2713 49.2189,76.938 49,75.5C 48,80.8333 47,80.8333 46,75.5C 45.7811,76.938 45.2811,78.2713 44.5,79.5C 43.5344,77.604 43.2011,75.604 43.5,73.5 Z"/></g>
<g><path style="opacity:1" fill="#60bd90" d="M 74.5,73.5 C 75.5,73.5 76.5,73.5 77.5,73.5C 77.5,74.5 77.5,75.5 77.5,76.5C 78.5,76.5 79.5,76.5 80.5,76.5C 80.5,77.5 80.5,78.5 80.5,79.5C 78.5,79.5 76.5,79.5 74.5,79.5C 74.5,77.5 74.5,75.5 74.5,73.5 Z"/></g>
</svg>
