<?xml version="1.0" encoding="UTF-8"?>
<!DOCTYPE svg PUBLIC "-//W3C//DTD SVG 1.1//EN" "http://www.w3.org/Graphics/SVG/1.1/DTD/svg11.dtd">
<svg xmlns="http://www.w3.org/2000/svg" version="1.1" width="96px" height="96px" style="shape-rendering:geometricPrecision; text-rendering:geometricPrecision; image-rendering:optimizeQuality; fill-rule:evenodd; clip-rule:evenodd" xmlns:xlink="http://www.w3.org/1999/xlink">
<g><path style="opacity:0.998" fill="#1faa61" d="M 9.5,21.5 C 36.5021,21.3334 63.5021,21.5 90.5,22C 91.4061,23.6995 91.7394,25.5328 91.5,27.5C 64.1667,27.5 36.8333,27.5 9.5,27.5C 9.5,25.5 9.5,23.5 9.5,21.5 Z"/></g>
<g><path style="opacity:1" fill="#1ea45d" d="M 9.5,27.5 C 36.8333,27.5 64.1667,27.5 91.5,27.5C 91.5,32.5 91.5,37.5 91.5,42.5C 89.5,42.5 87.5,42.5 85.5,42.5C 79.0088,29.8365 69.3422,26.6698 56.5,33C 53.535,35.7901 51.2016,38.9567 49.5,42.5C 47.5,42.5 45.5,42.5 43.5,42.5C 43.5858,41.5041 43.2524,40.6708 42.5,40C 39.8333,39.3333 37.1667,39.3333 34.5,40C 33.7476,40.6708 33.4142,41.5041 33.5,42.5C 32.1667,42.5 30.8333,42.5 29.5,42.5C 31.4695,30.9828 26.8029,27.1495 15.5,31C 15,31.5 14.5,32 14,32.5C 13.5017,35.8168 13.335,39.1501 13.5,42.5C 12.1667,42.5 10.8333,42.5 9.5,42.5C 9.5,37.5 9.5,32.5 9.5,27.5 Z"/></g>
<g><path style="opacity:1" fill="#c3c7c5" d="M 85.5,42.5 C 84.8557,62.319 75.189,68.9856 56.5,62.5C 51.1148,56.9872 48.7815,50.3205 49.5,42.5C 51.2016,38.9567 53.535,35.7901 56.5,33C 69.3422,26.6698 79.0088,29.8365 85.5,42.5 Z"/></g>
<g><path style="opacity:1" fill="#c7cbc9" d="M 34.5,31.5 C 37.1873,31.3359 39.854,31.5026 42.5,32C 43.8333,33 43.8333,34 42.5,35C 39.8333,35.6667 37.1667,35.6667 34.5,35C 33.3157,33.8545 33.3157,32.6879 34.5,31.5 Z"/></g>
<g><path style="opacity:1" fill="#159451" d="M 33.5,42.5 C 36.8333,43.8333 40.1667,43.8333 43.5,42.5C 45.5,42.5 47.5,42.5 49.5,42.5C 48.7815,50.3205 51.1148,56.9872 56.5,62.5C 52.1667,62.5 47.8333,62.5 43.5,62.5C 43.5,61.5 43.5,60.5 43.5,59.5C 43.336,53.5123 40.836,52.179 36,55.5C 35.51,56.7932 35.3433,58.1266 35.5,59.5C 35.5,60.5 35.5,61.5 35.5,62.5C 33.5,62.5 31.5,62.5 29.5,62.5C 29.5,58.8333 29.5,55.1667 29.5,51.5C 28.5,51.5 27.5,51.5 26.5,51.5C 23.1667,51.5 19.8333,51.5 16.5,51.5C 15.5,51.5 14.5,51.5 13.5,51.5C 13.5,55.1667 13.5,58.8333 13.5,62.5C 12.1667,62.5 10.8333,62.5 9.5,62.5C 9.5,55.8333 9.5,49.1667 9.5,42.5C 10.8333,42.5 12.1667,42.5 13.5,42.5C 13.335,39.1501 13.5017,35.8168 14,32.5C 14.5,32 15,31.5 15.5,31C 26.8029,27.1495 31.4695,30.9828 29.5,42.5C 30.8333,42.5 32.1667,42.5 33.5,42.5 Z"/></g>
<g><path style="opacity:1" fill="#3d3d3d" d="M 16.5,31.5 C 20.1064,31.2108 23.6064,31.5442 27,32.5C 30,43.1667 26.3333,46.5 16,42.5C 15.2446,38.7446 15.4113,35.0779 16.5,31.5 Z"/></g>
<g><path style="opacity:1" fill="#c7cac9" d="M 43.5,42.5 C 40.1667,43.8333 36.8333,43.8333 33.5,42.5C 33.4142,41.5041 33.7476,40.6708 34.5,40C 37.1667,39.3333 39.8333,39.3333 42.5,40C 43.2524,40.6708 43.5858,41.5041 43.5,42.5 Z"/></g>
<g><path style="opacity:1" fill="#535353" d="M 63.5,33.5 C 78.7487,33.898 83.9154,41.2313 79,55.5C 73.4421,61.9238 66.9421,63.0905 59.5,59C 50.577,48.8824 51.9104,40.3824 63.5,33.5 Z"/></g>
<g><path style="opacity:1" fill="#959595" d="M 65.5,43.5 C 71.4877,43.664 72.821,46.164 69.5,51C 63.4034,51.1475 62.0701,48.6475 65.5,43.5 Z"/></g>
<g><path style="opacity:1" fill="#108b4a" d="M 85.5,42.5 C 87.5,42.5 89.5,42.5 91.5,42.5C 91.5,50.5 91.5,58.5 91.5,66.5C 64.1667,66.5 36.8333,66.5 9.5,66.5C 9.5,65.1667 9.5,63.8333 9.5,62.5C 10.8333,62.5 12.1667,62.5 13.5,62.5C 13.5,58.8333 13.5,55.1667 13.5,51.5C 14.5,51.5 15.5,51.5 16.5,51.5C 12.4063,62.572 15.9063,66.2387 27,62.5C 27.7554,58.7446 27.5887,55.0779 26.5,51.5C 27.5,51.5 28.5,51.5 29.5,51.5C 29.5,55.1667 29.5,58.8333 29.5,62.5C 31.5,62.5 33.5,62.5 35.5,62.5C 35.5,61.5 35.5,60.5 35.5,59.5C 38.1667,62.1667 40.8333,62.1667 43.5,59.5C 43.5,60.5 43.5,61.5 43.5,62.5C 47.8333,62.5 52.1667,62.5 56.5,62.5C 75.189,68.9856 84.8557,62.319 85.5,42.5 Z"/></g>
<g><path style="opacity:1" fill="#3e423f" d="M 43.5,59.5 C 40.8333,62.1667 38.1667,62.1667 35.5,59.5C 35.3433,58.1266 35.51,56.7932 36,55.5C 40.836,52.179 43.336,53.5123 43.5,59.5 Z"/></g>
<g><path style="opacity:1" fill="#3d3d3d" d="M 16.5,51.5 C 19.8333,51.5 23.1667,51.5 26.5,51.5C 27.5887,55.0779 27.7554,58.7446 27,62.5C 15.9063,66.2387 12.4063,62.572 16.5,51.5 Z"/></g>
<g><path style="opacity:0.999" fill="#0a8645" d="M 9.5,66.5 C 36.8333,66.5 64.1667,66.5 91.5,66.5C 91.7564,68.7925 91.4231,70.9592 90.5,73C 86.8484,73.4986 83.1817,73.6653 79.5,73.5C 72.8333,73.5 66.1667,73.5 59.5,73.5C 57.5,73.5 55.5,73.5 53.5,73.5C 41.5,73.5 29.5,73.5 17.5,73.5C 14.8333,73.5 12.1667,73.5 9.5,73.5C 9.5,71.1667 9.5,68.8333 9.5,66.5 Z"/></g>
<g><path style="opacity:1" fill="#e8b100" d="M 17.5,73.5 C 29.5,73.5 41.5,73.5 53.5,73.5C 53.5,76.1667 53.5,78.8333 53.5,81.5C 41.5,81.5 29.5,81.5 17.5,81.5C 17.5,78.8333 17.5,76.1667 17.5,73.5 Z"/></g>
<g><path style="opacity:1" fill="#e8b100" d="M 59.5,73.5 C 66.1667,73.5 72.8333,73.5 79.5,73.5C 79.5,76.1667 79.5,78.8333 79.5,81.5C 72.8333,81.5 66.1667,81.5 59.5,81.5C 59.5,78.8333 59.5,76.1667 59.5,73.5 Z"/></g>
<g><path style="opacity:1" fill="#7f858d" d="M -0.5,9.5 C 8.84233,8.18817 12.1757,12.1882 9.5,21.5C 9.5,23.5 9.5,25.5 9.5,27.5C 9.5,32.5 9.5,37.5 9.5,42.5C 9.5,49.1667 9.5,55.8333 9.5,62.5C 9.5,63.8333 9.5,65.1667 9.5,66.5C 9.5,68.8333 9.5,71.1667 9.5,73.5C 9.5,80.1667 9.5,86.8333 9.5,93.5C 8.16667,93.5 6.83333,93.5 5.5,93.5C 5.66664,67.4979 5.49997,41.4979 5,15.5C 3.55575,13.8446 1.72241,13.178 -0.5,13.5C -0.5,12.1667 -0.5,10.8333 -0.5,9.5 Z"/></g>
</svg>
