<?xml version="1.0" encoding="UTF-8"?>
<!DOCTYPE svg PUBLIC "-//W3C//DTD SVG 1.1//EN" "http://www.w3.org/Graphics/SVG/1.1/DTD/svg11.dtd">
<svg xmlns="http://www.w3.org/2000/svg" version="1.1" width="94px" height="94px" style="shape-rendering:geometricPrecision; text-rendering:geometricPrecision; image-rendering:optimizeQuality; fill-rule:evenodd; clip-rule:evenodd" xmlns:xlink="http://www.w3.org/1999/xlink">
<g><path style="opacity:0.869" fill="#dde1e2" d="M -0.5,12.5 C 3.83333,12.5 8.16667,12.5 12.5,12.5C 12.5,15.8333 12.5,19.1667 12.5,22.5C 12.5,37.5 12.5,52.5 12.5,67.5C 12.5,71.8333 12.5,76.1667 12.5,80.5C 11.1779,80.67 10.0113,80.3366 9,79.5C 8.50204,76.5184 8.33537,73.5184 8.5,70.5C 9.83333,66.1667 9.83333,61.8333 8.5,57.5C 8.5,56.1667 8.5,54.8333 8.5,53.5C 8.5,52.1667 8.5,50.8333 8.5,49.5C 8.5,48.1667 8.5,46.8333 8.5,45.5C 9.83333,40.8333 9.83333,36.1667 8.5,31.5C 8.5,30.1667 8.5,28.8333 8.5,27.5C 9.68566,26.2946 9.68566,24.9613 8.5,23.5C 8.5,21.1667 8.5,18.8333 8.5,16.5C 5.5,16.5 2.5,16.5 -0.5,16.5C -0.5,15.1667 -0.5,13.8333 -0.5,12.5 Z"/></g>
<g><path style="opacity:0.987" fill="#464644" d="M 12.5,22.5 C 38.1688,22.3334 63.8355,22.5 89.5,23C 91.3502,23.6897 92.6836,24.8564 93.5,26.5C 93.5,38.8333 93.5,51.1667 93.5,63.5C 89.6653,67.1754 84.9987,68.5087 79.5,67.5C 74.8333,67.5 70.1667,67.5 65.5,67.5C 62.8333,67.5 60.1667,67.5 57.5,67.5C 45.5,67.5 33.5,67.5 21.5,67.5C 18.5,67.5 15.5,67.5 12.5,67.5C 12.5,52.5 12.5,37.5 12.5,22.5 Z"/></g>
<g><path style="opacity:0.805" fill="#de6d27" d="M 8.5,23.5 C 9.68566,24.9613 9.68566,26.2946 8.5,27.5C 6.5,27.5 4.5,27.5 2.5,27.5C 2.5,26.1667 2.5,24.8333 2.5,23.5C 4.5,23.5 6.5,23.5 8.5,23.5 Z"/></g>
<g><path style="opacity:1" fill="#deb848" d="M 34.5,29.5 C 36.3904,29.2965 37.8904,29.9632 39,31.5C 39.3057,35.336 39.4724,39.0027 39.5,42.5C 42.591,40.7594 44.2577,38.0928 44.5,34.5C 46.9539,36.8759 47.1206,39.5426 45,42.5C 43.2201,44.2929 41.3868,45.9596 39.5,47.5C 42.6804,48.6123 45.5137,47.9456 48,45.5C 49.033,48.2175 48.1997,50.0508 45.5,51C 41.9984,51.282 38.6651,51.4487 35.5,51.5C 37.2406,54.591 39.9072,56.2577 43.5,56.5C 41.1241,58.9539 38.4574,59.1206 35.5,57C 33.4701,55.1038 31.8034,52.9371 30.5,50.5C 29.1906,53.6522 29.5239,56.6522 31.5,59.5C 29.2183,60.9004 27.7183,60.2337 27,57.5C 26.2585,54.438 26.4252,51.438 27.5,48.5C 26.3493,47.269 25.1827,47.269 24,48.5C 22.7246,50.7173 21.7246,53.0506 21,55.5C 19.482,53.3863 19.1487,51.053 20,48.5C 22.0165,46.316 24.1831,44.316 26.5,42.5C 23.5967,41.0956 20.9301,41.429 18.5,43.5C 17.246,41.7408 17.5794,40.2408 19.5,39C 22.8936,38.2483 26.227,38.4149 29.5,39.5C 30.731,38.3493 30.731,37.1827 29.5,36C 27.2827,34.7246 24.9494,33.7246 22.5,33C 25.0947,31.1072 27.7614,31.1072 30.5,33C 36.4341,40.187 37.7674,39.0204 34.5,29.5 Z"/></g>
<g><path style="opacity:1" fill="#dfb948" d="M 72.5,29.5 C 74.451,29.2267 75.951,29.8934 77,31.5C 77.7517,34.8936 77.5851,38.227 76.5,41.5C 77.6507,42.731 78.8173,42.731 80,41.5C 81.2754,39.2827 82.2754,36.9494 83,34.5C 85.8757,36.463 86.2091,38.7964 84,41.5C 81.9575,43.7122 79.7908,45.7122 77.5,47.5C 80.3104,48.7414 82.9771,48.408 85.5,46.5C 86.9004,48.7817 86.2337,50.2817 83.5,51C 79.9984,51.282 76.6651,51.4487 73.5,51.5C 75.2406,54.591 77.9072,56.2577 81.5,56.5C 79.1241,58.9539 76.4574,59.1206 73.5,57C 71.5643,54.9632 69.8976,52.7966 68.5,50.5C 67.1809,54.0523 67.8475,57.2189 70.5,60C 67.162,61.2064 65.3287,60.0397 65,56.5C 64.7482,53.3331 64.5815,50.3331 64.5,47.5C 61.409,49.2406 59.7423,51.9072 59.5,55.5C 57.0466,53.0044 56.8799,50.3377 59,47.5C 60.8962,45.4701 63.0629,43.8034 65.5,42.5C 61.876,40.9653 58.7094,41.632 56,44.5C 55.1751,42.2992 55.6751,40.4659 57.5,39C 60.8936,38.2483 64.227,38.4149 67.5,39.5C 68.731,38.3493 68.731,37.1827 67.5,36C 65.2827,34.7246 62.9494,33.7246 60.5,33C 62.6137,31.482 64.947,31.1487 67.5,32C 70.0402,34.2047 72.2068,36.7047 74,39.5C 74.843,35.8971 74.343,32.5637 72.5,29.5 Z"/></g>
<g><path style="opacity:0.949" fill="#eec756" d="M 8.5,31.5 C 9.83333,36.1667 9.83333,40.8333 8.5,45.5C 6.83333,45.5 5.16667,45.5 3.5,45.5C 3.5,40.8333 3.5,36.1667 3.5,31.5C 5.16667,31.5 6.83333,31.5 8.5,31.5 Z"/></g>
<g><path style="opacity:1" fill="#36362c" d="M 31.5,41.5 C 35.0681,41.7593 36.4015,43.7593 35.5,47.5C 33.8333,47.5 32.1667,47.5 30.5,47.5C 30.3253,45.3792 30.6586,43.3792 31.5,41.5 Z"/></g>
<g><path style="opacity:1" fill="#38372d" d="M 69.5,41.5 C 73.485,41.6294 74.8183,43.4628 73.5,47C 68.7282,47.8104 67.3948,45.9771 69.5,41.5 Z"/></g>
<g><path style="opacity:0.755" fill="#da691c" d="M 8.5,49.5 C 8.5,50.8333 8.5,52.1667 8.5,53.5C 6.5,53.5 4.5,53.5 2.5,53.5C 2.5,52.1667 2.5,50.8333 2.5,49.5C 4.5,49.5 6.5,49.5 8.5,49.5 Z"/></g>
<g><path style="opacity:0.952" fill="#eec655" d="M 8.5,57.5 C 9.83333,61.8333 9.83333,66.1667 8.5,70.5C 6.83333,70.5 5.16667,70.5 3.5,70.5C 3.5,66.1667 3.5,61.8333 3.5,57.5C 5.16667,57.5 6.83333,57.5 8.5,57.5 Z"/></g>
<g><path style="opacity:0.964" fill="#eec249" d="M 21.5,67.5 C 33.5,67.5 45.5,67.5 57.5,67.5C 57.5,71.1667 57.5,74.8333 57.5,78.5C 55.1667,78.5 52.8333,78.5 50.5,78.5C 50.5,76.5 50.5,74.5 50.5,72.5C 49.5,72.5 48.5,72.5 47.5,72.5C 47.5,74.5 47.5,76.5 47.5,78.5C 46.5,78.5 45.5,78.5 44.5,78.5C 44.5,76.5 44.5,74.5 44.5,72.5C 43.1667,72.5 41.8333,72.5 40.5,72.5C 40.5,74.5 40.5,76.5 40.5,78.5C 39.5,78.5 38.5,78.5 37.5,78.5C 37.5,76.5 37.5,74.5 37.5,72.5C 36.5,72.5 35.5,72.5 34.5,72.5C 34.5,74.5 34.5,76.5 34.5,78.5C 33.5,78.5 32.5,78.5 31.5,78.5C 31.5,76.5 31.5,74.5 31.5,72.5C 30.5,72.5 29.5,72.5 28.5,72.5C 28.5,74.5 28.5,76.5 28.5,78.5C 26.1667,78.5 23.8333,78.5 21.5,78.5C 21.5,74.8333 21.5,71.1667 21.5,67.5 Z"/></g>
<g><path style="opacity:0.958" fill="#eec349" d="M 65.5,67.5 C 70.1667,67.5 74.8333,67.5 79.5,67.5C 79.5,71.1667 79.5,74.8333 79.5,78.5C 77.8333,78.5 76.1667,78.5 74.5,78.5C 74.5,76.5 74.5,74.5 74.5,72.5C 73.5,72.5 72.5,72.5 71.5,72.5C 71.5,74.5 71.5,76.5 71.5,78.5C 69.5,78.5 67.5,78.5 65.5,78.5C 65.5,74.8333 65.5,71.1667 65.5,67.5 Z"/></g>
<g><path style="opacity:1" fill="#df7a25" d="M 44.5,78.5 C 43.1667,78.5 41.8333,78.5 40.5,78.5C 40.5,76.5 40.5,74.5 40.5,72.5C 41.8333,72.5 43.1667,72.5 44.5,72.5C 44.5,74.5 44.5,76.5 44.5,78.5 Z"/></g>
<g><path style="opacity:1" fill="#dc6c1e" d="M 50.5,78.5 C 49.5,78.5 48.5,78.5 47.5,78.5C 47.5,76.5 47.5,74.5 47.5,72.5C 48.5,72.5 49.5,72.5 50.5,72.5C 50.5,74.5 50.5,76.5 50.5,78.5 Z"/></g>
<g><path style="opacity:1" fill="#de7221" d="M 31.5,78.5 C 30.5,78.5 29.5,78.5 28.5,78.5C 28.5,76.5 28.5,74.5 28.5,72.5C 29.5,72.5 30.5,72.5 31.5,72.5C 31.5,74.5 31.5,76.5 31.5,78.5 Z"/></g>
<g><path style="opacity:1" fill="#dd6e1f" d="M 37.5,78.5 C 36.5,78.5 35.5,78.5 34.5,78.5C 34.5,76.5 34.5,74.5 34.5,72.5C 35.5,72.5 36.5,72.5 37.5,72.5C 37.5,74.5 37.5,76.5 37.5,78.5 Z"/></g>
<g><path style="opacity:1" fill="#dd7121" d="M 74.5,78.5 C 73.5,78.5 72.5,78.5 71.5,78.5C 71.5,76.5 71.5,74.5 71.5,72.5C 72.5,72.5 73.5,72.5 74.5,72.5C 74.5,74.5 74.5,76.5 74.5,78.5 Z"/></g>
</svg>
