<?xml version="1.0" encoding="UTF-8"?>
<!DOCTYPE svg PUBLIC "-//W3C//DTD SVG 1.1//EN" "http://www.w3.org/Graphics/SVG/1.1/DTD/svg11.dtd">
<svg xmlns="http://www.w3.org/2000/svg" version="1.1" width="64px" height="64px" style="shape-rendering:geometricPrecision; text-rendering:geometricPrecision; image-rendering:optimizeQuality; fill-rule:evenodd; clip-rule:evenodd" xmlns:xlink="http://www.w3.org/1999/xlink">
<g><path style="opacity:0.972" fill="#3c8686" d="M 1.5,7.5 C 10.1605,5.50435 14.1605,8.83769 13.5,17.5C 18.2137,17.8266 22.8804,17.4933 27.5,16.5C 27.9767,15.5224 28.6433,14.6891 29.5,14C 39.5,13.3333 49.5,13.3333 59.5,14C 60,14.5 60.5,15 61,15.5C 61.6667,25.5 61.6667,35.5 61,45.5C 58.1737,47.3398 55.0071,48.0065 51.5,47.5C 51.5,48.8333 51.5,50.1667 51.5,51.5C 46.8333,51.5 42.1667,51.5 37.5,51.5C 36.8333,46.1667 36.1667,46.1667 35.5,51.5C 29.5,51.5 23.5,51.5 17.5,51.5C 17.5,50.1667 17.5,48.8333 17.5,47.5C 16.1667,47.5 14.8333,47.5 13.5,47.5C 13.5,50.1667 13.5,52.8333 13.5,55.5C 11.5,55.5 9.5,55.5 7.5,55.5C 7.5,54.5 7.5,53.5 7.5,52.5C 3.66465,51.9965 3.66465,50.9965 7.5,49.5C 6.31116,48.5713 4.97782,48.238 3.5,48.5C 3.5,45.8333 3.5,43.1667 3.5,40.5C 8.11028,40.4041 8.44361,39.4041 4.5,37.5C 5.5,36.8333 6.5,36.1667 7.5,35.5C 2.16667,34.1667 2.16667,32.8333 7.5,31.5C 5.60395,30.5344 3.60395,30.2011 1.5,30.5C 1.5,27.1667 1.5,23.8333 1.5,20.5C 7.6966,20.6749 8.36327,19.6749 3.5,17.5C 8.70643,14.6306 8.03976,13.2973 1.5,13.5C 1.5,11.5 1.5,9.5 1.5,7.5 Z M 35.5,15.5 C 42.8907,15.2012 50.224,15.5345 57.5,16.5C 58.1924,17.0253 58.6924,17.6919 59,18.5C 59.4994,24.1569 59.6661,29.8236 59.5,35.5C 58.5,35.5 57.5,35.5 56.5,35.5C 60.2032,22.0427 55.2032,16.2093 41.5,18C 39.6769,18.9973 38.0103,20.1639 36.5,21.5C 35.8505,19.5648 35.5172,17.5648 35.5,15.5 Z M 18.5,19.5 C 21.1667,19.5 23.8333,19.5 26.5,19.5C 26.5,25.5 26.5,31.5 26.5,37.5C 25.209,37.7373 24.209,37.404 23.5,36.5C 22.8333,36.5 22.1667,36.5 21.5,36.5C 21.5,34.5 21.5,32.5 21.5,30.5C 20.5,30.5 19.5,30.5 18.5,30.5C 18.5,29.8333 18.5,29.1667 18.5,28.5C 19.5,28.5 20.5,28.5 21.5,28.5C 21.5,26.5 21.5,24.5 21.5,22.5C 20.5,22.5 19.5,22.5 18.5,22.5C 18.5,21.5 18.5,20.5 18.5,19.5 Z"/></g>
<g><path style="opacity:0.986" fill="#cfef9d" d="M 11.5,46.5 C 11.8076,48.924 11.4742,51.2573 10.5,53.5C 9.66726,39.8455 9.16726,26.1788 9,12.5C 7.17459,11.8971 5.34126,11.2304 3.5,10.5C 5.7383,9.61679 7.90497,9.95012 10,11.5C 10.1693,23.3405 10.6693,35.0072 11.5,46.5 Z"/></g>
<g><path style="opacity:0.996" fill="#cbed9d" d="M 35.5,15.5 C 35.5172,17.5648 35.8505,19.5648 36.5,21.5C 34.4917,27.2868 35.4917,32.4535 39.5,37C 41.289,38.783 43.4557,39.6164 46,39.5C 49.7981,38.847 53.2981,37.5137 56.5,35.5C 57.5,35.5 58.5,35.5 59.5,35.5C 59.7394,37.4672 59.4061,39.3005 58.5,41C 49.1667,41.6667 39.8333,41.6667 30.5,41C 29.5939,39.3005 29.2606,37.4672 29.5,35.5C 30.8333,35.5 32.1667,35.5 33.5,35.5C 33.5,33.5 33.5,31.5 33.5,29.5C 28.1667,28.8333 28.1667,28.1667 33.5,27.5C 33.5,25.5 33.5,23.5 33.5,21.5C 32.1667,21.5 30.8333,21.5 29.5,21.5C 28.5,16.5 30.5,14.5 35.5,15.5 Z"/></g>
<g><path style="opacity:1" fill="#5e9e8b" d="M 31.5,17.5 C 33.337,17.6395 33.6704,18.3061 32.5,19.5C 31.7025,19.0431 31.3691,18.3764 31.5,17.5 Z"/></g>
<g><path style="opacity:0.904" fill="#448c88" d="M 56.5,35.5 C 53.2981,37.5137 49.7981,38.847 46,39.5C 43.4557,39.6164 41.289,38.783 39.5,37C 35.4917,32.4535 34.4917,27.2868 36.5,21.5C 38.0103,20.1639 39.6769,18.9973 41.5,18C 55.2032,16.2093 60.2032,22.0427 56.5,35.5 Z"/></g>
<g><path style="opacity:0.766" fill="#3a8585" d="M 55.5,17.5 C 57.337,17.6395 57.6704,18.3061 56.5,19.5C 55.7025,19.0431 55.3691,18.3764 55.5,17.5 Z"/></g>
<g><path style="opacity:0.997" fill="#cdee9d" d="M 18.5,19.5 C 18.5,20.5 18.5,21.5 18.5,22.5C 17.5,22.5 16.5,22.5 15.5,22.5C 15.5,24.5 15.5,26.5 15.5,28.5C 16.5,28.5 17.5,28.5 18.5,28.5C 18.5,29.1667 18.5,29.8333 18.5,30.5C 17.5,30.5 16.5,30.5 15.5,30.5C 15.5,34.5 15.5,38.5 15.5,42.5C 17.5,42.5 19.5,42.5 21.5,42.5C 21.5,40.5 21.5,38.5 21.5,36.5C 22.1667,36.5 22.8333,36.5 23.5,36.5C 24.209,37.404 25.209,37.7373 26.5,37.5C 26.5,31.5 26.5,25.5 26.5,19.5C 27.3285,26.3213 27.8285,33.3213 28,40.5C 28.3076,41.3081 28.8076,41.9747 29.5,42.5C 39.7252,43.4751 49.7252,43.8084 59.5,43.5C 59.2907,44.086 58.9574,44.586 58.5,45C 43.5037,45.4999 28.5037,45.6666 13.5,45.5C 13.5,36.8333 13.5,28.1667 13.5,19.5C 15.1667,19.5 16.8333,19.5 18.5,19.5 Z M 18.5,19.5 C 21.1667,19.5 23.8333,19.5 26.5,19.5C 26.5,25.5 26.5,31.5 26.5,37.5C 25.209,37.7373 24.209,37.404 23.5,36.5C 22.8333,36.5 22.1667,36.5 21.5,36.5C 21.5,34.5 21.5,32.5 21.5,30.5C 20.5,30.5 19.5,30.5 18.5,30.5C 18.5,29.8333 18.5,29.1667 18.5,28.5C 19.5,28.5 20.5,28.5 21.5,28.5C 21.5,26.5 21.5,24.5 21.5,22.5C 20.5,22.5 19.5,22.5 18.5,22.5C 18.5,21.5 18.5,20.5 18.5,19.5 Z"/></g>
<g><path style="opacity:1" fill="#a2d6a6" d="M 41.5,20.5 C 42.5,20.5 43.5,20.5 44.5,20.5C 45.1869,26.5988 43.8535,27.0988 40.5,22C 41.056,21.6174 41.3893,21.1174 41.5,20.5 Z"/></g>
<g><path style="opacity:1" fill="#9ad0a3" d="M 46.5,19.5 C 52.8156,19.8671 53.1489,21.5337 47.5,24.5C 46.5481,22.9547 46.2148,21.288 46.5,19.5 Z"/></g>
<g><path style="opacity:1" fill="#a7dba7" d="M 3.5,22.5 C 4.83333,22.5 6.16667,22.5 7.5,22.5C 7.5,24.5 7.5,26.5 7.5,28.5C 6.16667,28.5 4.83333,28.5 3.5,28.5C 3.5,26.5 3.5,24.5 3.5,22.5 Z"/></g>
<g><path style="opacity:0.984" fill="#438c88" d="M 18.5,22.5 C 19.5,22.5 20.5,22.5 21.5,22.5C 21.5,24.5 21.5,26.5 21.5,28.5C 20.5,28.5 19.5,28.5 18.5,28.5C 17.5,28.5 16.5,28.5 15.5,28.5C 15.5,26.5 15.5,24.5 15.5,22.5C 16.5,22.5 17.5,22.5 18.5,22.5 Z"/></g>
<g><path style="opacity:0.766" fill="#3a8585" d="M 23.5,23.5 C 25.337,23.6395 25.6704,24.3061 24.5,25.5C 23.7025,25.0431 23.3691,24.3764 23.5,23.5 Z"/></g>
<g><path style="opacity:1" fill="#a2d6a6" d="M 52.5,22.5 C 54.1042,23.287 54.7709,24.6203 54.5,26.5C 52.8008,26.6602 51.1341,26.4935 49.5,26C 50.7101,24.9609 51.7101,23.7942 52.5,22.5 Z"/></g>
<g><path style="opacity:1" fill="#9ad0a3" d="M 38.5,23.5 C 43.9791,26.7173 43.6458,28.3839 37.5,28.5C 37.6287,26.7839 37.962,25.1172 38.5,23.5 Z"/></g>
<g><path style="opacity:0.948" fill="#3a8585" d="M 23.5,36.5 C 23.1826,33.4281 23.5159,30.4281 24.5,27.5C 24.8333,29 25.1667,30.5 25.5,32C 25.4313,33.9855 24.7647,35.4855 23.5,36.5 Z"/></g>
<g><path style="opacity:1" fill="#9bd1a4" d="M 50.5,28.5 C 52.1667,28.5 53.8333,28.5 55.5,28.5C 54.5814,34.6797 52.9147,34.6797 50.5,28.5 Z"/></g>
<g><path style="opacity:0.996" fill="#3d8786" d="M 18.5,30.5 C 19.5,30.5 20.5,30.5 21.5,30.5C 21.5,32.5 21.5,34.5 21.5,36.5C 21.5,38.5 21.5,40.5 21.5,42.5C 19.5,42.5 17.5,42.5 15.5,42.5C 15.5,38.5 15.5,34.5 15.5,30.5C 16.5,30.5 17.5,30.5 18.5,30.5 Z"/></g>
<g><path style="opacity:1" fill="#a2d6a6" d="M 38.5,30.5 C 44.5988,29.8131 45.0988,31.1465 40,34.5C 38.8118,33.4366 38.3118,32.1033 38.5,30.5 Z"/></g>
<g><path style="opacity:1" fill="#79bd99" d="M 17.5,32.5 C 18.7479,33.3339 19.4146,34.6672 19.5,36.5C 19.1667,37.8333 18.8333,39.1667 18.5,40.5C 17.52,37.9135 17.1866,35.2469 17.5,32.5 Z"/></g>
<g><path style="opacity:1" fill="#a0d4a5" d="M 48.5,31.5 C 53.1458,33.5353 53.3125,35.5353 49,37.5C 48.5045,35.5273 48.3379,33.5273 48.5,31.5 Z"/></g>
<g><path style="opacity:1" fill="#96cda2" d="M 44.5,32.5 C 46.256,33.5521 46.9227,35.2188 46.5,37.5C 44.6916,37.5086 43.0249,37.0086 41.5,36C 42.7101,34.9609 43.7101,33.7942 44.5,32.5 Z"/></g>
<g><path style="opacity:1" fill="#5e9e8b" d="M 31.5,37.5 C 33.337,37.6395 33.6704,38.3061 32.5,39.5C 31.7025,39.0431 31.3691,38.3764 31.5,37.5 Z"/></g>
<g><path style="opacity:1" fill="#5e9e8b" d="M 55.5,37.5 C 57.337,37.6395 57.6704,38.3061 56.5,39.5C 55.7025,39.0431 55.3691,38.3764 55.5,37.5 Z"/></g>
<g><path style="opacity:1" fill="#4a8f88" d="M 23.5,38.5 C 24.5862,38.62 25.2528,39.2867 25.5,40.5C 25.1667,41.1667 24.8333,41.8333 24.5,42.5C 23.5713,41.3112 23.238,39.9778 23.5,38.5 Z"/></g>
<g><path style="opacity:1" fill="#a7dba7" d="M 5.5,42.5 C 6.58617,42.62 7.25284,43.2867 7.5,44.5C 7.16667,45.1667 6.83333,45.8333 6.5,46.5C 5.57131,45.3112 5.23798,43.9778 5.5,42.5 Z"/></g>
<g><path style="opacity:1" fill="#a7dba7" d="M 19.5,47.5 C 21.337,47.6395 21.6704,48.3061 20.5,49.5C 19.7025,49.0431 19.3691,48.3764 19.5,47.5 Z"/></g>
<g><path style="opacity:1" fill="#a7dba7" d="M 23.5,47.5 C 25.337,47.6395 25.6704,48.3061 24.5,49.5C 23.7025,49.0431 23.3691,48.3764 23.5,47.5 Z"/></g>
<g><path style="opacity:1" fill="#a7dba7" d="M 27.5,47.5 C 29.337,47.6395 29.6704,48.3061 28.5,49.5C 27.7025,49.0431 27.3691,48.3764 27.5,47.5 Z"/></g>
<g><path style="opacity:1" fill="#a7dba7" d="M 31.5,47.5 C 33.337,47.6395 33.6704,48.3061 32.5,49.5C 31.7025,49.0431 31.3691,48.3764 31.5,47.5 Z"/></g>
<g><path style="opacity:1" fill="#a7dba7" d="M 39.5,47.5 C 41.337,47.6395 41.6704,48.3061 40.5,49.5C 39.7025,49.0431 39.3691,48.3764 39.5,47.5 Z"/></g>
<g><path style="opacity:1" fill="#a7dba7" d="M 43.5,47.5 C 45.337,47.6395 45.6704,48.3061 44.5,49.5C 43.7025,49.0431 43.3691,48.3764 43.5,47.5 Z"/></g>
<g><path style="opacity:1" fill="#a7dba7" d="M 47.5,47.5 C 49.337,47.6395 49.6704,48.3061 48.5,49.5C 47.7025,49.0431 47.3691,48.3764 47.5,47.5 Z"/></g>
</svg>
