<?xml version="1.0" encoding="UTF-8"?>
<!DOCTYPE svg PUBLIC "-//W3C//DTD SVG 1.1//EN" "http://www.w3.org/Graphics/SVG/1.1/DTD/svg11.dtd">
<svg xmlns="http://www.w3.org/2000/svg" version="1.1" width="50px" height="50px" style="shape-rendering:geometricPrecision; text-rendering:geometricPrecision; image-rendering:optimizeQuality; fill-rule:evenodd; clip-rule:evenodd" xmlns:xlink="http://www.w3.org/1999/xlink">
<g><path style="opacity:0.714" fill="#000000" d="M 26.5,3.5 C 29.5719,3.18259 32.5719,3.51592 35.5,4.5C 38.013,14.0654 40.013,23.7321 41.5,33.5C 43.7224,33.178 45.5557,33.8446 47,35.5C 49.1667,44 46,47.1667 37.5,45C 35.8787,42.834 35.0454,40.334 35,37.5C 33.9783,38.354 33.1449,39.354 32.5,40.5C 26.1667,41.1667 19.8333,41.8333 13.5,42.5C 13.0233,43.4776 12.3567,44.3109 11.5,45C 1.5,46.6667 -1.16667,43 3.5,34C 5.83333,33.6667 8.16667,33.3333 10.5,33C 7.44651,32.8214 4.44651,32.3214 1.5,31.5C 1.70931,30.914 2.04265,30.414 2.5,30C 9.09094,27.9611 14.0909,29.7945 17.5,35.5C 27.5903,39.3716 34.257,36.3716 37.5,26.5C 35.9362,19.8477 34.4362,13.181 33,6.5C 30.3695,6.1408 28.2029,5.1408 26.5,3.5 Z"/></g>
<g><path style="opacity:0.766" fill="#000000" d="M 5.5,37.5 C 6.83333,37.5 8.16667,37.5 9.5,37.5C 9.5,38.8333 9.5,40.1667 9.5,41.5C 8.16667,41.5 6.83333,41.5 5.5,41.5C 5.5,40.1667 5.5,38.8333 5.5,37.5 Z"/></g>
</svg>
