<?xml version="1.0" encoding="UTF-8"?>
<!DOCTYPE svg PUBLIC "-//W3C//DTD SVG 1.1//EN" "http://www.w3.org/Graphics/SVG/1.1/DTD/svg11.dtd">
<svg xmlns="http://www.w3.org/2000/svg" version="1.1" width="100px" height="100px" style="shape-rendering:geometricPrecision; text-rendering:geometricPrecision; image-rendering:optimizeQuality; fill-rule:evenodd; clip-rule:evenodd" xmlns:xlink="http://www.w3.org/1999/xlink">
<g><path style="opacity:0.906" fill="#20232c" d="M 56.5,11.5 C 58.1765,12.1834 58.8432,13.5168 58.5,15.5C 63.5,15.5 68.5,15.5 73.5,15.5C 73.238,14.0222 73.5713,12.6888 74.5,11.5C 77.8989,13.3122 81.5656,13.9789 85.5,13.5C 85.5,15.5 85.5,17.5 85.5,19.5C 81.5656,19.0211 77.8989,19.6878 74.5,21.5C 73.5713,20.3112 73.238,18.9778 73.5,17.5C 71.396,17.2011 69.396,17.5344 67.5,18.5C 68.9357,24.1765 70.4357,29.8431 72,35.5C 72.7175,34.5494 73.5509,34.3828 74.5,35C 76.3557,45.3003 78.5223,55.8003 81,66.5C 83.9561,68.4531 86.6228,70.7864 89,73.5C 91.1667,85.3333 86.3333,90.1667 74.5,88C 72.6667,86.8333 71.1667,85.3333 70,83.5C 69.6667,80.1667 69.3333,76.8333 69,73.5C 66.5374,76.9646 63.7041,80.1312 60.5,83C 49.5,83.3333 38.5,83.6667 27.5,84C 26.5,85.6667 25.1667,87 23.5,88C 11.6667,90.1667 6.83333,85.3333 9,73.5C 12.6551,68.7255 17.4884,67.2255 23.5,69C 25.1667,70 26.5,71.3333 27.5,73C 28.5,73.6667 29.5,73.6667 30.5,73C 25.2671,66.5285 18.6004,64.6951 10.5,67.5C 10.3601,65.8762 11.0267,64.7096 12.5,64C 19.4921,63.5004 26.4921,63.3337 33.5,63.5C 33.5,66.8333 33.5,70.1667 33.5,73.5C 41.1739,73.6664 48.8406,73.4997 56.5,73C 61.6905,68.5654 66.6905,63.8987 71.5,59C 69.9672,52.204 67.9672,45.5373 65.5,39C 65.9686,37.1131 66.9686,35.6131 68.5,34.5C 66.9112,28.8883 65.5778,23.2216 64.5,17.5C 62.5,17.5 60.5,17.5 58.5,17.5C 58.762,18.9778 58.4287,20.3112 57.5,21.5C 54.1011,19.6878 50.4344,19.0211 46.5,19.5C 46.5,17.5 46.5,15.5 46.5,13.5C 50.3293,14.069 53.6627,13.4023 56.5,11.5 Z"/></g>
<g><path style="opacity:1" fill="#b2b2c2" d="M 48.5,15.5 C 51.2469,15.1866 53.9135,15.52 56.5,16.5C 55.1667,16.8333 53.8333,17.1667 52.5,17.5C 50.6672,17.4146 49.3339,16.7479 48.5,15.5 Z"/></g>
<g><path style="opacity:1" fill="#b2b2c2" d="M 75.5,15.5 C 78.2469,15.1866 80.9135,15.52 83.5,16.5C 82.1667,16.8333 80.8333,17.1667 79.5,17.5C 77.6672,17.4146 76.3339,16.7479 75.5,15.5 Z"/></g>
<g><path style="opacity:1" fill="#9494a3" d="M 69.5,37.5 C 74.5922,37.7886 74.7589,38.7886 70,40.5C 68.3167,39.8235 68.1501,38.8235 69.5,37.5 Z"/></g>
<g><path style="opacity:1" fill="#6ebac1" d="M 70.5,41.5 C 71.5,41.5 72.5,41.5 73.5,41.5C 75.7276,53.8676 78.061,66.201 80.5,78.5C 79.5,78.5 78.5,78.5 77.5,78.5C 75.2713,66.1248 72.9379,53.7915 70.5,41.5 Z"/></g>
<g><path style="opacity:1" fill="#6eb9c0" d="M 71.5,62.5 C 72.5983,63.6009 72.765,64.9343 72,66.5C 67.8671,71.6344 63.3671,76.4677 58.5,81C 48.5056,81.4998 38.5056,81.6665 28.5,81.5C 28.5,79.5 28.5,77.5 28.5,75.5C 38.1724,75.6665 47.8391,75.4998 57.5,75C 62.3611,70.9679 67.0277,66.8012 71.5,62.5 Z"/></g>
<g><path style="opacity:1" fill="#6ebac2" d="M 27.5,66.5 C 28.5676,65.5655 29.901,65.2322 31.5,65.5C 31.6567,66.8734 31.49,68.2068 31,69.5C 29.9609,68.2899 28.7942,67.2899 27.5,66.5 Z"/></g>
<g><path style="opacity:1" fill="#aa704f" d="M 15.5,70.5 C 23.6577,69.8229 27.1577,73.4895 26,81.5C 23.7742,85.8608 20.2742,87.3608 15.5,86C 11.1392,83.7742 9.63919,80.2742 11,75.5C 12.025,73.313 13.525,71.6464 15.5,70.5 Z"/></g>
<g><path style="opacity:1" fill="#a56d4e" d="M 81.5,70.5 C 86.507,72.5139 88.3404,76.1805 87,81.5C 84.7742,85.8608 81.2742,87.3608 76.5,86C 70.9843,82.4091 70.151,77.9091 74,72.5C 75.1419,74.6787 75.9752,77.0121 76.5,79.5C 78.0745,80.6309 79.7412,80.7975 81.5,80C 82.5732,76.8876 82.5732,73.7209 81.5,70.5 Z"/></g>
<g><path style="opacity:1" fill="#493836" d="M 18.5,73.5 C 20.7569,72.1974 22.5902,72.864 24,75.5C 24.6667,77.1667 24.6667,78.8333 24,80.5C 23.8048,76.8118 21.9715,74.4785 18.5,73.5 Z"/></g>
<g><path style="opacity:1" fill="#483835" d="M 84.5,80.5 C 84.3016,78.4247 84.1349,76.4247 84,74.5C 85.7074,76.4833 85.874,78.4833 84.5,80.5 Z"/></g>
<g><path style="opacity:1" fill="#454142" d="M 16.5,75.5 C 21.1585,75.0146 22.4919,76.848 20.5,81C 15.7282,81.8104 14.3948,79.9771 16.5,75.5 Z"/></g>
<g><path style="opacity:1" fill="#72c2c9" d="M 17.5,76.5 C 20.8606,77.2032 21.1939,78.5365 18.5,80.5C 16.3576,79.5629 16.0243,78.2296 17.5,76.5 Z"/></g>
<g><path style="opacity:1" fill="#564039" d="M 16.5,83.5 C 12.8539,82.5385 11.6872,80.2051 13,76.5C 13.1328,79.4042 14.2995,81.7376 16.5,83.5 Z"/></g>
<g><path style="opacity:1" fill="#493836" d="M 75.5,83.5 C 76.7211,82.5354 78.0544,82.702 79.5,84C 78.0715,84.5791 76.7382,84.4124 75.5,83.5 Z"/></g>
<g><path style="opacity:1" fill="#4d3b37" d="M 84.5,80.5 C 84.4894,82.6859 83.4894,83.5192 81.5,83C 82.3734,81.955 83.3734,81.1217 84.5,80.5 Z"/></g>
<g><path style="opacity:1" fill="#3f3333" d="M 16.5,83.5 C 18.5753,83.3016 20.5753,83.1349 22.5,83C 20.5167,84.7074 18.5167,84.874 16.5,83.5 Z"/></g>
</svg>
